<svg width="338" height="289" viewBox="0 0 338 289" fill="none" xmlns="http://www.w3.org/2000/svg">
<rect x="0.5" y="0.5" width="337" height="288" rx="9.5" fill="#F8F5FF" stroke="#26213B"/>
<path d="M125.835 11.3001H127.659V17.3853C127.659 17.9478 127.532 18.4364 127.279 18.8512C127.029 19.266 126.681 19.5856 126.235 19.81C125.789 20.0344 125.271 20.1467 124.68 20.1467C124.154 20.1467 123.677 20.0543 123.248 19.8697C122.822 19.6822 122.484 19.3981 122.234 19.0174C121.984 18.6339 121.86 18.1523 121.863 17.5728H123.7C123.706 17.8029 123.752 18.0004 123.841 18.1651C123.931 18.3271 124.055 18.4521 124.211 18.5401C124.37 18.6254 124.558 18.668 124.774 18.668C125.001 18.668 125.193 18.6197 125.349 18.5231C125.508 18.4237 125.629 18.2788 125.711 18.0884C125.794 17.8981 125.835 17.6637 125.835 17.3853V11.3001ZM131.017 20.1509C130.599 20.1509 130.227 20.0785 129.9 19.9336C129.574 19.7859 129.315 19.5685 129.125 19.2816C128.937 18.9918 128.843 18.631 128.843 18.1992C128.843 17.8356 128.91 17.5302 129.044 17.283C129.177 17.0359 129.359 16.837 129.589 16.6864C129.819 16.5359 130.081 16.4222 130.373 16.3455C130.669 16.2688 130.978 16.2148 131.302 16.1836C131.683 16.1438 131.99 16.1069 132.223 16.0728C132.456 16.0359 132.625 15.9819 132.73 15.9109C132.835 15.8398 132.887 15.7347 132.887 15.5955V15.57C132.887 15.3001 132.802 15.0913 132.632 14.9435C132.464 14.7958 132.225 14.7219 131.916 14.7219C131.589 14.7219 131.329 14.7944 131.136 14.9393C130.943 15.0813 130.815 15.2603 130.752 15.4762L129.074 15.3398C129.159 14.9421 129.326 14.5984 129.576 14.3086C129.826 14.016 130.149 13.7915 130.544 13.6353C130.941 13.4762 131.402 13.3967 131.924 13.3967C132.288 13.3967 132.636 13.4393 132.968 13.5245C133.304 13.6097 133.6 13.7418 133.859 13.9208C134.12 14.0998 134.326 14.3299 134.477 14.6112C134.627 14.8896 134.703 15.2234 134.703 15.6126V20.0273H132.981V19.1197H132.93C132.825 19.3242 132.684 19.5046 132.508 19.6609C132.332 19.8143 132.12 19.935 131.873 20.0231C131.626 20.1083 131.341 20.1509 131.017 20.1509ZM131.537 18.8981C131.804 18.8981 132.039 18.8455 132.244 18.7404C132.449 18.6325 132.609 18.4876 132.725 18.3058C132.842 18.1239 132.9 17.918 132.9 17.6879V16.9933C132.843 17.0302 132.765 17.0643 132.666 17.0955C132.569 17.1239 132.46 17.1509 132.338 17.1765C132.216 17.1992 132.093 17.2205 131.971 17.2404C131.849 17.2575 131.738 17.2731 131.639 17.2873C131.426 17.3185 131.24 17.3683 131.081 17.4364C130.922 17.5046 130.798 17.5969 130.71 17.7134C130.622 17.8271 130.578 17.9691 130.578 18.1396C130.578 18.3867 130.667 18.5756 130.846 18.7063C131.028 18.8342 131.258 18.8981 131.537 18.8981ZM137.926 16.2433V20.0273H136.111V13.4819H137.841V14.6367H137.918C138.063 14.256 138.306 13.9549 138.647 13.7333C138.988 13.5089 139.401 13.3967 139.887 13.3967C140.341 13.3967 140.738 13.4961 141.076 13.695C141.414 13.8938 141.676 14.1779 141.864 14.5472C142.051 14.9137 142.145 15.3512 142.145 15.8597V20.0273H140.33V16.1836C140.333 15.783 140.23 15.4705 140.023 15.2461C139.816 15.0188 139.53 14.9052 139.167 14.9052C138.922 14.9052 138.706 14.9577 138.519 15.0629C138.334 15.168 138.189 15.3214 138.084 15.5231C137.982 15.7219 137.929 15.962 137.926 16.2433ZM146.559 20.1552C145.886 20.1552 145.306 20.0188 144.82 19.7461C144.337 19.4705 143.965 19.0813 143.704 18.5785C143.442 18.0728 143.312 17.4748 143.312 16.7844C143.312 16.1112 143.442 15.5202 143.704 15.0117C143.965 14.5032 144.333 14.1069 144.808 13.8228C145.285 13.5387 145.844 13.3967 146.487 13.3967C146.918 13.3967 147.32 13.4663 147.692 13.6055C148.067 13.7418 148.394 13.9478 148.673 14.2234C148.954 14.4989 149.173 14.8455 149.329 15.2631C149.485 15.6779 149.563 16.1637 149.563 16.7205V17.2191H144.036V16.0941H147.854C147.854 15.8327 147.798 15.6012 147.684 15.3995C147.57 15.1978 147.413 15.0401 147.211 14.9265C147.012 14.81 146.781 14.7518 146.516 14.7518C146.241 14.7518 145.996 14.8157 145.783 14.9435C145.573 15.0685 145.408 15.2376 145.289 15.4506C145.17 15.6609 145.109 15.8952 145.106 16.1538V17.2234C145.106 17.5472 145.165 17.8271 145.285 18.0629C145.407 18.2987 145.579 18.4805 145.8 18.6083C146.022 18.7362 146.285 18.8001 146.589 18.8001C146.79 18.8001 146.975 18.7717 147.143 18.7148C147.31 18.658 147.454 18.5728 147.573 18.4592C147.692 18.3455 147.783 18.2063 147.846 18.0415L149.525 18.1523C149.44 18.5558 149.265 18.908 149.001 19.2092C148.739 19.5075 148.401 19.7404 147.987 19.908C147.575 20.0728 147.099 20.1552 146.559 20.1552ZM150.748 20.0273V13.4819H152.563V20.0273H150.748ZM151.66 12.6381C151.39 12.6381 151.158 12.5487 150.965 12.3697C150.775 12.1879 150.68 11.9705 150.68 11.7177C150.68 11.4677 150.775 11.2532 150.965 11.0742C151.158 10.8924 151.39 10.8015 151.66 10.8015C151.93 10.8015 152.16 10.8924 152.35 11.0742C152.543 11.2532 152.64 11.4677 152.64 11.7177C152.64 11.9705 152.543 12.1879 152.35 12.3697C152.16 12.5487 151.93 12.6381 151.66 12.6381ZM154.017 20.0273V13.4819H155.777V14.6239H155.846C155.965 14.2177 156.165 13.9109 156.446 13.7035C156.728 13.4933 157.051 13.3881 157.418 13.3881C157.509 13.3881 157.607 13.3938 157.712 13.4052C157.817 13.4165 157.909 13.4322 157.989 13.4521V15.0629C157.904 15.0373 157.786 15.0146 157.635 14.9947C157.485 14.9748 157.347 14.9648 157.222 14.9648C156.955 14.9648 156.716 15.0231 156.506 15.1396C156.299 15.2532 156.134 15.4123 156.012 15.6168C155.892 15.8214 155.833 16.0572 155.833 16.3242V20.0273H154.017ZM161.58 20.1552C160.918 20.1552 160.346 20.0146 159.863 19.7333C159.383 19.4492 159.012 19.0543 158.751 18.5487C158.489 18.0401 158.359 17.4506 158.359 16.7802C158.359 16.104 158.489 15.5131 158.751 15.0075C159.012 14.4989 159.383 14.104 159.863 13.8228C160.346 13.5387 160.918 13.3967 161.58 13.3967C162.242 13.3967 162.813 13.5387 163.293 13.8228C163.776 14.104 164.148 14.4989 164.41 15.0075C164.671 15.5131 164.802 16.104 164.802 16.7802C164.802 17.4506 164.671 18.0401 164.41 18.5487C164.148 19.0543 163.776 19.4492 163.293 19.7333C162.813 20.0146 162.242 20.1552 161.58 20.1552ZM161.589 18.7489C161.89 18.7489 162.141 18.6637 162.343 18.4933C162.545 18.32 162.697 18.0842 162.799 17.7859C162.904 17.4876 162.957 17.1481 162.957 16.7674C162.957 16.3867 162.904 16.0472 162.799 15.7489C162.697 15.4506 162.545 15.2148 162.343 15.0415C162.141 14.8683 161.89 14.7816 161.589 14.7816C161.285 14.7816 161.029 14.8683 160.822 15.0415C160.617 15.2148 160.462 15.4506 160.357 15.7489C160.255 16.0472 160.204 16.3867 160.204 16.7674C160.204 17.1481 160.255 17.4876 160.357 17.7859C160.462 18.0842 160.617 18.32 160.822 18.4933C161.029 18.6637 161.285 18.7489 161.589 18.7489ZM168.743 20.0273V18.6978L171.849 15.8214C172.113 15.5657 172.335 15.3356 172.514 15.131C172.696 14.9265 172.833 14.7262 172.927 14.5302C173.021 14.3313 173.068 14.1168 173.068 13.8867C173.068 13.631 173.01 13.4109 172.893 13.2262C172.777 13.0387 172.618 12.8952 172.416 12.7958C172.214 12.6935 171.985 12.6424 171.73 12.6424C171.463 12.6424 171.23 12.6964 171.031 12.8043C170.832 12.9123 170.679 13.0671 170.571 13.2688C170.463 13.4705 170.409 13.7106 170.409 13.989H168.657C168.657 13.418 168.787 12.9222 169.045 12.5018C169.304 12.0813 169.666 11.756 170.132 11.5259C170.598 11.2958 171.135 11.1808 171.743 11.1808C172.368 11.1808 172.912 11.2915 173.375 11.5131C173.841 11.7319 174.203 12.0359 174.461 12.4251C174.72 12.8143 174.849 13.2603 174.849 13.7631C174.849 14.0927 174.784 14.418 174.653 14.739C174.525 15.06 174.297 15.4165 173.967 15.8086C173.637 16.1978 173.173 16.6651 172.574 17.2106L171.299 18.4592V18.5188H174.964V20.0273H168.743ZM179.723 20.2191C178.99 20.2163 178.359 20.0359 177.831 19.6779C177.305 19.32 176.901 18.8015 176.616 18.1225C176.335 17.4435 176.196 16.6268 176.199 15.6722C176.199 14.7205 176.339 13.9094 176.621 13.239C176.905 12.5685 177.31 12.0586 177.835 11.7092C178.364 11.3569 178.993 11.1808 179.723 11.1808C180.453 11.1808 181.081 11.3569 181.607 11.7092C182.135 12.0614 182.541 12.5728 182.825 13.2433C183.109 13.9109 183.25 14.7205 183.247 15.6722C183.247 16.6296 183.105 17.4478 182.821 18.1268C182.54 18.8058 182.136 19.3242 181.611 19.6822C181.085 20.0401 180.456 20.2191 179.723 20.2191ZM179.723 18.6893C180.223 18.6893 180.622 18.4379 180.92 17.935C181.219 17.4322 181.366 16.6779 181.364 15.6722C181.364 15.0103 181.295 14.4592 181.159 14.0188C181.026 13.5785 180.835 13.2475 180.588 13.0259C180.344 12.8043 180.055 12.6935 179.723 12.6935C179.226 12.6935 178.828 12.9421 178.53 13.4393C178.232 13.9364 178.081 14.6808 178.078 15.6722C178.078 16.3427 178.145 16.9023 178.278 17.3512C178.415 17.7972 178.607 18.1325 178.854 18.3569C179.101 18.5785 179.391 18.6893 179.723 18.6893ZM184.563 20.0273V18.6978L187.669 15.8214C187.934 15.5657 188.155 15.3356 188.334 15.131C188.516 14.9265 188.654 14.7262 188.748 14.5302C188.841 14.3313 188.888 14.1168 188.888 13.8867C188.888 13.631 188.83 13.4109 188.713 13.2262C188.597 13.0387 188.438 12.8952 188.236 12.7958C188.034 12.6935 187.806 12.6424 187.55 12.6424C187.283 12.6424 187.05 12.6964 186.851 12.8043C186.652 12.9123 186.499 13.0671 186.391 13.2688C186.283 13.4705 186.229 13.7106 186.229 13.989H184.478C184.478 13.418 184.607 12.9222 184.865 12.5018C185.124 12.0813 185.486 11.756 185.952 11.5259C186.418 11.2958 186.955 11.1808 187.563 11.1808C188.188 11.1808 188.732 11.2915 189.195 11.5131C189.661 11.7319 190.023 12.0359 190.282 12.4251C190.54 12.8143 190.669 13.2603 190.669 13.7631C190.669 14.0927 190.604 14.418 190.473 14.739C190.346 15.06 190.117 15.4165 189.787 15.8086C189.458 16.1978 188.993 16.6651 188.394 17.2106L187.12 18.4592V18.5188H190.784V20.0273H184.563ZM195.347 20.1467C194.711 20.1467 194.144 20.0373 193.647 19.8185C193.153 19.5969 192.762 19.293 192.475 18.9066C192.191 18.5174 192.045 18.0685 192.036 17.56H193.894C193.906 17.7731 193.975 17.9606 194.103 18.1225C194.234 18.2816 194.407 18.4052 194.623 18.4933C194.839 18.5813 195.082 18.6254 195.352 18.6254C195.633 18.6254 195.881 18.5756 196.097 18.4762C196.313 18.3768 196.482 18.239 196.604 18.0629C196.727 17.8867 196.788 17.6836 196.788 17.4535C196.788 17.2205 196.722 17.0146 196.592 16.8356C196.464 16.6538 196.279 16.5117 196.038 16.4094C195.799 16.3072 195.515 16.256 195.185 16.256H194.371V14.9009H195.185C195.464 14.9009 195.71 14.8526 195.923 14.756C196.138 14.6594 196.306 14.5259 196.425 14.3555C196.545 14.1822 196.604 13.9805 196.604 13.7504C196.604 13.5316 196.552 13.3398 196.447 13.1751C196.344 13.0075 196.2 12.8768 196.012 12.783C195.827 12.6893 195.612 12.6424 195.364 12.6424C195.114 12.6424 194.886 12.6879 194.678 12.7788C194.471 12.8668 194.305 12.9933 194.18 13.158C194.055 13.3228 193.988 13.516 193.979 13.7376H192.211C192.219 13.2347 192.363 12.7915 192.641 12.408C192.92 12.0245 193.295 11.7248 193.766 11.5089C194.241 11.2901 194.776 11.1808 195.373 11.1808C195.975 11.1808 196.502 11.2901 196.954 11.5089C197.406 11.7276 197.756 12.0231 198.006 12.3952C198.259 12.7646 198.384 13.1793 198.381 13.6396C198.384 14.1282 198.232 14.5359 197.925 14.8626C197.621 15.1893 197.225 15.3967 196.737 15.4847V15.5529C197.379 15.6353 197.867 15.8583 198.202 16.2219C198.54 16.5827 198.708 17.0344 198.705 17.5771C198.708 18.0742 198.565 18.516 198.275 18.9023C197.988 19.2887 197.592 19.5927 197.086 19.8143C196.58 20.0359 196.001 20.1467 195.347 20.1467Z" fill="#26213B"/>
<path d="M1.82422 60.7832H336.785" stroke="#26213B"/>
<path d="M52.9983 89.4527C52.9983 99.2834 44.5405 107.302 34.045 107.302C23.5495 107.302 15.0918 99.2834 15.0918 89.4527C15.0918 79.622 23.5495 71.6035 34.045 71.6035C44.5405 71.6035 52.9983 79.622 52.9983 89.4527Z" fill="white" stroke="#58449D"/>
<path d="M52.9983 131.884C52.9983 141.715 44.5405 149.734 34.045 149.734C23.5495 149.734 15.0918 141.715 15.0918 131.884C15.0918 122.054 23.5495 114.035 34.045 114.035C44.5405 114.035 52.9983 122.054 52.9983 131.884Z" fill="white" stroke="#58449D"/>
<path d="M52.9983 174.316C52.9983 184.147 44.5405 192.165 34.045 192.165C23.5495 192.165 15.0918 184.147 15.0918 174.316C15.0918 164.485 23.5495 156.467 34.045 156.467C44.5405 156.467 52.9983 164.485 52.9983 174.316Z" fill="white" stroke="#58449D"/>
<path d="M52.9983 216.75C52.9983 226.58 44.5405 234.599 34.045 234.599C23.5495 234.599 15.0918 226.58 15.0918 216.75C15.0918 206.919 23.5495 198.9 34.045 198.9C44.5405 198.9 52.9983 206.919 52.9983 216.75Z" fill="white" stroke="#58449D"/>
<path d="M52.9983 259.181C52.9983 269.012 44.5405 277.03 34.045 277.03C23.5495 277.03 15.0918 269.012 15.0918 259.181C15.0918 249.351 23.5495 241.332 34.045 241.332C44.5405 241.332 52.9983 249.351 52.9983 259.181Z" fill="white" stroke="#58449D"/>
<path d="M97.9807 89.4527C97.9807 99.2834 89.523 107.302 79.0275 107.302C68.5319 107.302 60.0742 99.2834 60.0742 89.4527C60.0742 79.622 68.5319 71.6035 79.0275 71.6035C89.523 71.6035 97.9807 79.622 97.9807 89.4527Z" fill="white" stroke="#58449D"/>
<ellipse cx="79.0275" cy="131.884" rx="19.4532" ry="18.3492" fill="#58449D"/>
<path d="M97.9807 174.316C97.9807 184.147 89.523 192.165 79.0275 192.165C68.5319 192.165 60.0742 184.147 60.0742 174.316C60.0742 164.485 68.5319 156.467 79.0275 156.467C89.523 156.467 97.9807 164.485 97.9807 174.316Z" fill="white" stroke="#58449D"/>
<path d="M97.9807 216.75C97.9807 226.58 89.523 234.599 79.0275 234.599C68.5319 234.599 60.0742 226.58 60.0742 216.75C60.0742 206.919 68.5319 198.9 79.0275 198.9C89.523 198.9 97.9807 206.919 97.9807 216.75Z" fill="white" stroke="#58449D"/>
<ellipse cx="79.0275" cy="259.181" rx="19.4532" ry="18.3492" fill="#58449D"/>
<ellipse cx="124.016" cy="89.4527" rx="19.4532" ry="18.3492" fill="#58449D"/>
<ellipse cx="124.016" cy="131.884" rx="19.4532" ry="18.3492" fill="#58449D"/>
<ellipse cx="124.016" cy="174.316" rx="19.4532" ry="18.3492" fill="#58449D"/>
<path d="M142.969 216.75C142.969 226.58 134.511 234.599 124.016 234.599C113.52 234.599 105.062 226.58 105.062 216.75C105.062 206.919 113.52 198.9 124.016 198.9C134.511 198.9 142.969 206.919 142.969 216.75Z" fill="white" stroke="#58449D"/>
<ellipse opacity="0.5" cx="124.016" cy="259.181" rx="19.4532" ry="18.3492" fill="#58449D"/>
<ellipse cx="169" cy="89.4527" rx="19.4532" ry="18.3492" fill="#58449D"/>
<ellipse cx="169" cy="131.884" rx="19.4532" ry="18.3492" fill="#58449D"/>
<ellipse cx="169" cy="174.316" rx="19.4532" ry="18.3492" fill="#58449D"/>
<path d="M187.953 216.75C187.953 226.58 179.496 234.599 169 234.599C158.505 234.599 150.047 226.58 150.047 216.75C150.047 206.919 158.505 198.9 169 198.9C179.496 198.9 187.953 206.919 187.953 216.75Z" fill="white" stroke="#58449D"/>
<ellipse opacity="0.5" cx="169" cy="259.181" rx="19.4532" ry="18.3492" fill="#58449D"/>
<ellipse cx="213.377" cy="89.4527" rx="18.8453" ry="18.3492" fill="#58449D"/>
<path d="M231.722 131.884C231.722 141.73 223.521 149.734 213.377 149.734C203.232 149.734 195.031 141.73 195.031 131.884C195.031 122.039 203.232 114.035 213.377 114.035C223.521 114.035 231.722 122.039 231.722 131.884Z" fill="white" stroke="#58449D"/>
<ellipse cx="213.377" cy="174.316" rx="18.8453" ry="18.3492" fill="#58449D"/>
<ellipse cx="213.377" cy="216.75" rx="18.8453" ry="18.3492" fill="#58449D"/>
<path opacity="0.5" d="M231.722 259.181C231.722 269.027 223.521 277.03 213.377 277.03C203.232 277.03 195.031 269.027 195.031 259.181C195.031 249.336 203.232 241.332 213.377 241.332C223.521 241.332 231.722 249.336 231.722 259.181Z" fill="white" stroke="#58449D"/>
<ellipse cx="258.363" cy="89.4527" rx="18.8453" ry="18.3492" fill="#58449D"/>
<path d="M276.708 131.884C276.708 141.73 268.507 149.734 258.363 149.734C248.218 149.734 240.018 141.73 240.018 131.884C240.018 122.039 248.218 114.035 258.363 114.035C268.507 114.035 276.708 122.039 276.708 131.884Z" fill="white" stroke="#58449D"/>
<path d="M276.708 174.316C276.708 184.161 268.507 192.165 258.363 192.165C248.218 192.165 240.018 184.161 240.018 174.316C240.018 164.471 248.218 156.467 258.363 156.467C268.507 156.467 276.708 164.471 276.708 174.316Z" fill="white" stroke="#58449D"/>
<ellipse cx="258.363" cy="216.75" rx="18.8453" ry="18.3492" fill="#58449D"/>
<path opacity="0.5" d="M276.708 259.181C276.708 269.027 268.507 277.03 258.363 277.03C248.218 277.03 240.018 269.027 240.018 259.181C240.018 249.336 248.218 241.332 258.363 241.332C268.507 241.332 276.708 249.336 276.708 259.181Z" fill="white" stroke="#58449D"/>
<path d="M321.696 89.4527C321.696 99.2834 313.238 107.302 302.742 107.302C292.247 107.302 283.789 99.2834 283.789 89.4527C283.789 79.622 292.247 71.6035 302.742 71.6035C313.238 71.6035 321.696 79.622 321.696 89.4527Z" fill="white" stroke="#58449D"/>
<path d="M321.696 131.884C321.696 141.715 313.238 149.734 302.742 149.734C292.247 149.734 283.789 141.715 283.789 131.884C283.789 122.054 292.247 114.035 302.742 114.035C313.238 114.035 321.696 122.054 321.696 131.884Z" fill="white" stroke="#58449D"/>
<path d="M321.696 174.316C321.696 184.147 313.238 192.165 302.742 192.165C292.247 192.165 283.789 184.147 283.789 174.316C283.789 164.485 292.247 156.467 302.742 156.467C313.238 156.467 321.696 164.485 321.696 174.316Z" fill="white" stroke="#58449D"/>
<path d="M321.696 216.75C321.696 226.58 313.238 234.599 302.742 234.599C292.247 234.599 283.789 226.58 283.789 216.75C283.789 206.919 292.247 198.9 302.742 198.9C313.238 198.9 321.696 206.919 321.696 216.75Z" fill="white" stroke="#58449D"/>
<ellipse cx="302.742" cy="259.181" rx="19.4532" ry="18.3492" fill="white"/>
<path d="M321.696 259.181C321.696 269.012 313.238 277.03 302.742 277.03C292.247 277.03 283.789 269.012 283.789 259.181C283.789 249.351 292.247 241.332 302.742 241.332C313.238 241.332 321.696 249.351 321.696 259.181Z" stroke="#58449D" stroke-opacity="0.5"/>
<path d="M34.8988 83.5501V92.2773H33.0536V85.3015H33.0025L31.0039 86.5543V84.918L33.1644 83.5501H34.8988Z" fill="black"/>
<path d="M34.3576 134.83C33.7013 134.83 33.1175 134.724 32.6062 134.511C32.0977 134.295 31.6985 134.001 31.4087 133.629C31.119 133.256 30.9741 132.835 30.9741 132.363C30.9741 131.999 31.0565 131.665 31.2212 131.362C31.3888 131.055 31.6161 130.8 31.9031 130.599C32.19 130.394 32.511 130.263 32.8661 130.207V130.147C32.4002 130.053 32.0224 129.827 31.7326 129.469C31.4428 129.109 31.2979 128.69 31.2979 128.212C31.2979 127.761 31.43 127.359 31.6942 127.006C31.9585 126.651 32.3207 126.373 32.7809 126.171C33.244 125.967 33.7695 125.864 34.3576 125.864C34.9457 125.864 35.4698 125.967 35.93 126.171C36.3931 126.376 36.7567 126.656 37.021 127.011C37.2852 127.363 37.4187 127.763 37.4215 128.212C37.4187 128.692 37.271 129.112 36.9783 129.469C36.6857 129.827 36.3107 130.053 35.8533 130.147V130.207C36.2028 130.263 36.5195 130.394 36.8036 130.599C37.0906 130.8 37.3178 131.055 37.4854 131.362C37.6559 131.665 37.7425 131.999 37.7454 132.363C37.7425 132.835 37.5962 133.256 37.3065 133.629C37.0167 134.001 36.6161 134.295 36.1048 134.511C35.5962 134.724 35.0138 134.83 34.3576 134.83ZM34.3576 133.475C34.6502 133.475 34.9059 133.423 35.1246 133.317C35.3434 133.21 35.5138 133.062 35.636 132.874C35.761 132.684 35.8235 132.465 35.8235 132.218C35.8235 131.965 35.7596 131.742 35.6317 131.549C35.5039 131.353 35.3306 131.2 35.1119 131.089C34.8931 130.975 34.6417 130.918 34.3576 130.918C34.0763 130.918 33.8249 130.975 33.6033 131.089C33.3817 131.2 33.207 131.353 33.0792 131.549C32.9542 131.742 32.8917 131.965 32.8917 132.218C32.8917 132.465 32.9528 132.684 33.0749 132.874C33.1971 133.062 33.369 133.21 33.5906 133.317C33.8121 133.423 34.0678 133.475 34.3576 133.475ZM34.3576 129.576C34.6019 129.576 34.8192 129.526 35.0096 129.427C35.1999 129.327 35.3491 129.19 35.457 129.013C35.565 128.837 35.619 128.634 35.619 128.404C35.619 128.177 35.565 127.978 35.457 127.808C35.3491 127.634 35.2013 127.499 35.0138 127.403C34.8263 127.303 34.6076 127.254 34.3576 127.254C34.1104 127.254 33.8917 127.303 33.7013 127.403C33.511 127.499 33.3619 127.634 33.2539 127.808C33.1488 127.978 33.0962 128.177 33.0962 128.404C33.0962 128.634 33.1502 128.837 33.2582 129.013C33.3661 129.19 33.5153 129.327 33.7056 129.427C33.896 129.526 34.1133 129.576 34.3576 129.576Z" fill="black"/>
<path d="M30.0355 168.415V177.143H28.1903V170.167H28.1392L26.1406 171.42V169.783L28.3011 168.415H30.0355ZM35.2972 177.262C34.695 177.262 34.158 177.151 33.6864 176.93C33.2177 176.708 32.8455 176.403 32.57 176.013C32.2944 175.624 32.1509 175.178 32.1396 174.675H33.9293C33.9492 175.013 34.0913 175.287 34.3555 175.498C34.6197 175.708 34.9336 175.813 35.2972 175.813C35.587 175.813 35.8427 175.749 36.0643 175.621C36.2887 175.491 36.4634 175.31 36.5884 175.08C36.7163 174.847 36.7802 174.58 36.7802 174.279C36.7802 173.972 36.7148 173.702 36.5842 173.469C36.4563 173.236 36.2788 173.055 36.0515 172.924C35.8242 172.793 35.5643 172.726 35.2717 172.724C35.016 172.724 34.7674 172.776 34.5259 172.881C34.2873 172.986 34.1012 173.13 33.9677 173.312L32.3271 173.018L32.7404 168.415H38.0756V169.924H34.2617L34.0359 172.11H34.087C34.2404 171.894 34.4719 171.715 34.7816 171.573C35.0913 171.431 35.4379 171.36 35.8214 171.36C36.3469 171.36 36.8157 171.483 37.2276 171.731C37.6396 171.978 37.9648 172.317 38.2035 172.749C38.4421 173.178 38.56 173.672 38.5572 174.232C38.56 174.82 38.4237 175.343 38.1481 175.8C37.8754 176.255 37.4933 176.613 37.0018 176.874C36.5131 177.133 35.945 177.262 35.2972 177.262Z" fill="black"/>
<path d="M25.0238 219.574V218.245L28.1303 215.368C28.3945 215.113 28.6161 214.882 28.7951 214.678C28.9769 214.473 29.1147 214.273 29.2085 214.077C29.3022 213.878 29.3491 213.664 29.3491 213.434C29.3491 213.178 29.2908 212.958 29.1744 212.773C29.0579 212.586 28.8988 212.442 28.6971 212.343C28.4954 212.24 28.2667 212.189 28.011 212.189C27.744 212.189 27.511 212.243 27.3121 212.351C27.1133 212.459 26.9599 212.614 26.8519 212.816C26.744 213.017 26.69 213.257 26.69 213.536H24.9386C24.9386 212.965 25.0678 212.469 25.3263 212.049C25.5849 211.628 25.9471 211.303 26.413 211.073C26.8789 210.843 27.4158 210.728 28.0238 210.728C28.6488 210.728 29.1928 210.838 29.6559 211.06C30.1218 211.279 30.484 211.583 30.7425 211.972C31.0011 212.361 31.1303 212.807 31.1303 213.31C31.1303 213.64 31.065 213.965 30.9343 214.286C30.8065 214.607 30.5778 214.963 30.2482 215.355C29.9187 215.745 29.4542 216.212 28.8548 216.757L27.5806 218.006V218.066H31.2454V219.574H25.0238ZM32.5824 219.574V218.245L35.6889 215.368C35.9531 215.113 36.1747 214.882 36.3537 214.678C36.5355 214.473 36.6733 214.273 36.767 214.077C36.8608 213.878 36.9077 213.664 36.9077 213.434C36.9077 213.178 36.8494 212.958 36.733 212.773C36.6165 212.586 36.4574 212.442 36.2557 212.343C36.054 212.24 35.8253 212.189 35.5696 212.189C35.3026 212.189 35.0696 212.243 34.8707 212.351C34.6719 212.459 34.5185 212.614 34.4105 212.816C34.3026 213.017 34.2486 213.257 34.2486 213.536H32.4972C32.4972 212.965 32.6264 212.469 32.8849 212.049C33.1435 211.628 33.5057 211.303 33.9716 211.073C34.4375 210.843 34.9744 210.728 35.5824 210.728C36.2074 210.728 36.7514 210.838 37.2145 211.06C37.6804 211.279 38.0426 211.583 38.3011 211.972C38.5597 212.361 38.6889 212.807 38.6889 213.31C38.6889 213.64 38.6236 213.965 38.4929 214.286C38.3651 214.607 38.1364 214.963 37.8068 215.355C37.4773 215.745 37.0128 216.212 36.4134 216.757L35.1392 218.006V218.066H38.804V219.574H32.5824Z" fill="black"/>
<path d="M25.0238 263.154V261.825L28.1303 258.948C28.3945 258.693 28.6161 258.463 28.7951 258.258C28.9769 258.053 29.1147 257.853 29.2085 257.657C29.3022 257.458 29.3491 257.244 29.3491 257.014C29.3491 256.758 29.2908 256.538 29.1744 256.353C29.0579 256.166 28.8988 256.022 28.6971 255.923C28.4954 255.82 28.2667 255.769 28.011 255.769C27.744 255.769 27.511 255.823 27.3121 255.931C27.1133 256.039 26.9599 256.194 26.8519 256.396C26.744 256.597 26.69 256.838 26.69 257.116H24.9386C24.9386 256.545 25.0678 256.049 25.3263 255.629C25.5849 255.208 25.9471 254.883 26.413 254.653C26.8789 254.423 27.4158 254.308 28.0238 254.308C28.6488 254.308 29.1928 254.419 29.6559 254.64C30.1218 254.859 30.484 255.163 30.7425 255.552C31.0011 255.941 31.1303 256.387 31.1303 256.89C31.1303 257.22 31.065 257.545 30.9343 257.866C30.8065 258.187 30.5778 258.544 30.2482 258.936C29.9187 259.325 29.4542 259.792 28.8548 260.338L27.5806 261.586V261.646H31.2454V263.154H25.0238ZM35.7401 254.308C36.1889 254.308 36.6207 254.383 37.0355 254.534C37.4531 254.684 37.8253 254.924 38.152 255.254C38.4815 255.583 38.7415 256.021 38.9318 256.566C39.125 257.109 39.223 257.775 39.2259 258.565C39.2259 259.306 39.142 259.968 38.9744 260.551C38.8097 261.13 38.5724 261.623 38.2628 262.029C37.9531 262.436 37.5795 262.745 37.142 262.958C36.7045 263.169 36.2159 263.274 35.6761 263.274C35.0938 263.274 34.5795 263.161 34.1335 262.937C33.6875 262.71 33.3281 262.401 33.0554 262.012C32.7855 261.62 32.6222 261.18 32.5653 260.691H34.3849C34.456 261.009 34.6051 261.257 34.8324 261.433C35.0597 261.606 35.3409 261.693 35.6761 261.693C36.2443 261.693 36.6761 261.445 36.9716 260.951C37.267 260.454 37.4162 259.774 37.419 258.91H37.3594C37.2287 259.166 37.0526 259.386 36.831 259.57C36.6094 259.752 36.3551 259.893 36.0682 259.992C35.7841 260.092 35.4815 260.142 35.1605 260.142C34.6463 260.142 34.1875 260.021 33.7841 259.779C33.3807 259.538 33.0625 259.205 32.8295 258.782C32.5966 258.359 32.4801 257.876 32.4801 257.333C32.4773 256.748 32.6122 256.227 32.8849 255.769C33.1577 255.312 33.5384 254.954 34.027 254.695C34.5185 254.434 35.0895 254.305 35.7401 254.308ZM35.7528 255.757C35.4659 255.757 35.2102 255.825 34.9858 255.961C34.7642 256.097 34.5881 256.281 34.4574 256.511C34.3295 256.741 34.267 256.998 34.2699 257.282C34.2699 257.569 34.3324 257.828 34.4574 258.058C34.5852 258.285 34.7585 258.467 34.9773 258.603C35.1989 258.737 35.4517 258.803 35.7358 258.803C35.9489 258.803 36.1463 258.764 36.3281 258.684C36.5099 258.605 36.6676 258.495 36.8011 258.356C36.9375 258.214 37.044 258.051 37.1207 257.866C37.1974 257.681 37.2358 257.485 37.2358 257.278C37.233 257.002 37.1676 256.749 37.0398 256.519C36.9119 256.289 36.7358 256.105 36.5114 255.965C36.2869 255.826 36.0341 255.757 35.7528 255.757Z" fill="black"/>
<path d="M76.0902 92.2773V90.9478L79.1967 88.0714C79.4609 87.8157 79.6825 87.5856 79.8615 87.381C80.0433 87.1765 80.1811 86.9762 80.2749 86.7802C80.3686 86.5813 80.4155 86.3668 80.4155 86.1367C80.4155 85.881 80.3572 85.6609 80.2408 85.4762C80.1243 85.2887 79.9652 85.1452 79.7635 85.0458C79.5618 84.9435 79.3331 84.8924 79.0774 84.8924C78.8104 84.8924 78.5774 84.9464 78.3786 85.0543C78.1797 85.1623 78.0263 85.3171 77.9183 85.5188C77.8104 85.7205 77.7564 85.9606 77.7564 86.239H76.005C76.005 85.668 76.1342 85.1722 76.3928 84.7518C76.6513 84.3313 77.0135 84.006 77.4794 83.7759C77.9453 83.5458 78.4822 83.4308 79.0902 83.4308C79.7152 83.4308 80.2592 83.5415 80.7223 83.7631C81.1882 83.9819 81.5504 84.2859 81.8089 84.6751C82.0675 85.0643 82.1967 85.5103 82.1967 86.0131C82.1967 86.3427 82.1314 86.668 82.0007 86.989C81.8729 87.31 81.6442 87.6665 81.3146 88.0586C80.9851 88.4478 80.5206 88.9151 79.9212 89.4606L78.647 90.7092V90.7688H82.3118V92.2773H76.0902Z" fill="black"/>
<path d="M78.0311 125.864C78.4799 125.864 78.9118 125.94 79.3265 126.09C79.7441 126.241 80.1163 126.481 80.443 126.81C80.7725 127.14 81.0325 127.577 81.2228 128.123C81.416 128.665 81.514 129.332 81.5169 130.121C81.5169 130.863 81.4331 131.525 81.2654 132.107C81.1007 132.687 80.8635 133.18 80.5538 133.586C80.2441 133.992 79.8706 134.302 79.4331 134.515C78.9956 134.725 78.5069 134.83 77.9672 134.83C77.3848 134.83 76.8706 134.718 76.4245 134.494C75.9785 134.266 75.6191 133.958 75.3464 133.569C75.0765 133.177 74.9132 132.737 74.8564 132.248H76.676C76.747 132.566 76.8961 132.813 77.1234 132.989C77.3507 133.163 77.6319 133.249 77.9672 133.249C78.5353 133.249 78.9672 133.002 79.2626 132.508C79.5581 132.011 79.7072 131.33 79.71 130.467H79.6504C79.5197 130.722 79.3436 130.942 79.122 131.127C78.9004 131.309 78.6461 131.45 78.3592 131.549C78.0751 131.648 77.7725 131.698 77.4515 131.698C76.9373 131.698 76.4785 131.577 76.0751 131.336C75.6717 131.094 75.3535 130.762 75.1206 130.339C74.8876 129.915 74.7711 129.433 74.7711 128.89C74.7683 128.305 74.9032 127.783 75.176 127.326C75.4487 126.869 75.8294 126.511 76.318 126.252C76.8095 125.991 77.3805 125.862 78.0311 125.864ZM78.0439 127.313C77.7569 127.313 77.5012 127.381 77.2768 127.518C77.0552 127.654 76.8791 127.837 76.7484 128.067C76.6206 128.298 76.5581 128.555 76.5609 128.839C76.5609 129.126 76.6234 129.384 76.7484 129.614C76.8762 129.842 77.0495 130.023 77.2683 130.16C77.4899 130.293 77.7427 130.36 78.0268 130.36C78.2399 130.36 78.4373 130.32 78.6191 130.241C78.801 130.161 78.9586 130.052 79.0922 129.913C79.2285 129.771 79.335 129.607 79.4118 129.423C79.4885 129.238 79.5268 129.042 79.5268 128.835C79.524 128.559 79.4586 128.306 79.3308 128.076C79.2029 127.846 79.0268 127.661 78.8024 127.522C78.5779 127.383 78.3251 127.313 78.0439 127.313Z" fill="#E6ECFB"/>
<path d="M75.0238 168.415V177.143H73.1786V170.167H73.1275L71.1289 171.42V169.783L73.2894 168.415H75.0238ZM80.4474 177.262C79.9986 177.259 79.5653 177.184 79.1477 177.036C78.733 176.888 78.3608 176.648 78.0312 176.316C77.7017 175.983 77.4403 175.543 77.2472 174.995C77.0568 174.447 76.9616 173.773 76.9616 172.975C76.9645 172.242 77.0483 171.587 77.2131 171.01C77.3807 170.431 77.6193 169.939 77.929 169.536C78.2415 169.133 78.6151 168.826 79.0497 168.616C79.4844 168.403 79.9716 168.296 80.5114 168.296C81.0938 168.296 81.608 168.41 82.054 168.637C82.5 168.861 82.858 169.167 83.1278 169.553C83.4006 169.939 83.5653 170.373 83.6222 170.853H81.8026C81.7315 170.549 81.5824 170.31 81.3551 170.137C81.1278 169.964 80.8466 169.877 80.5114 169.877C79.9432 169.877 79.5114 170.124 79.2159 170.618C78.9233 171.113 78.7741 171.785 78.7685 172.634H78.8281C78.9588 172.376 79.1349 172.155 79.3565 171.974C79.581 171.789 79.8352 171.648 80.1193 171.552C80.4062 171.452 80.7088 171.403 81.027 171.403C81.544 171.403 82.0043 171.525 82.4077 171.769C82.8111 172.01 83.1293 172.343 83.3622 172.766C83.5952 173.189 83.7116 173.674 83.7116 174.219C83.7116 174.81 83.5739 175.336 83.2983 175.796C83.0256 176.256 82.6435 176.617 82.152 176.878C81.6634 177.137 81.0952 177.265 80.4474 177.262ZM80.4389 175.813C80.723 175.813 80.9773 175.745 81.2017 175.608C81.4261 175.472 81.6023 175.287 81.7301 175.055C81.858 174.822 81.9219 174.56 81.9219 174.27C81.9219 173.981 81.858 173.721 81.7301 173.491C81.6051 173.26 81.4318 173.077 81.2102 172.941C80.9886 172.805 80.7358 172.736 80.4517 172.736C80.2386 172.736 80.0412 172.776 79.8594 172.856C79.6804 172.935 79.5227 173.046 79.3864 173.188C79.2528 173.33 79.1477 173.495 79.071 173.682C78.9943 173.867 78.956 174.064 78.956 174.275C78.956 174.556 79.0199 174.813 79.1477 175.046C79.2784 175.279 79.4545 175.465 79.6761 175.604C79.9006 175.743 80.1548 175.813 80.4389 175.813Z" fill="black"/>
<path d="M70.0082 219.574V218.245L73.1147 215.368C73.3789 215.113 73.6005 214.882 73.7795 214.678C73.9613 214.473 74.0991 214.273 74.1928 214.077C74.2866 213.878 74.3335 213.664 74.3335 213.434C74.3335 213.178 74.2752 212.958 74.1587 212.773C74.0423 212.586 73.8832 212.442 73.6815 212.343C73.4798 212.24 73.2511 212.189 72.9954 212.189C72.7283 212.189 72.4954 212.243 72.2965 212.351C72.0977 212.459 71.9442 212.614 71.8363 212.816C71.7283 213.017 71.6744 213.257 71.6744 213.536H69.9229C69.9229 212.965 70.0522 212.469 70.3107 212.049C70.5692 211.628 70.9315 211.303 71.3974 211.073C71.8633 210.843 72.4002 210.728 73.0082 210.728C73.6332 210.728 74.1772 210.838 74.6403 211.06C75.1062 211.279 75.4684 211.583 75.7269 211.972C75.9854 212.361 76.1147 212.807 76.1147 213.31C76.1147 213.64 76.0494 213.965 75.9187 214.286C75.7908 214.607 75.5621 214.963 75.2326 215.355C74.9031 215.745 74.4386 216.212 73.8391 216.757L72.565 218.006V218.066H76.2298V219.574H70.0082ZM80.7926 219.694C80.1563 219.694 79.5895 219.584 79.0923 219.365C78.598 219.144 78.2074 218.84 77.9205 218.453C77.6364 218.064 77.4901 217.615 77.4815 217.107H79.3395C79.3509 217.32 79.4205 217.507 79.5483 217.669C79.679 217.828 79.8523 217.952 80.0682 218.04C80.2841 218.128 80.527 218.172 80.7969 218.172C81.0781 218.172 81.3267 218.123 81.5426 218.023C81.7585 217.924 81.9276 217.786 82.0497 217.61C82.1719 217.434 82.233 217.23 82.233 217C82.233 216.767 82.1676 216.561 82.0369 216.382C81.9091 216.201 81.7244 216.059 81.483 215.956C81.2443 215.854 80.9602 215.803 80.6307 215.803H79.8168V214.448H80.6307C80.9091 214.448 81.1548 214.4 81.3679 214.303C81.5838 214.206 81.7514 214.073 81.8707 213.902C81.9901 213.729 82.0497 213.527 82.0497 213.297C82.0497 213.078 81.9972 212.887 81.892 212.722C81.7898 212.554 81.6449 212.424 81.4574 212.33C81.2727 212.236 81.0568 212.189 80.8097 212.189C80.5597 212.189 80.331 212.235 80.1236 212.326C79.9162 212.414 79.75 212.54 79.625 212.705C79.5 212.87 79.4332 213.063 79.4247 213.284H77.6562C77.6648 212.782 77.8082 212.338 78.0866 211.955C78.3651 211.571 78.7401 211.272 79.2116 211.056C79.6861 210.837 80.2216 210.728 80.8182 210.728C81.4205 210.728 81.9474 210.837 82.3991 211.056C82.8509 211.275 83.2017 211.57 83.4517 211.942C83.7045 212.311 83.8295 212.726 83.8267 213.186C83.8295 213.675 83.6776 214.083 83.3707 214.409C83.0668 214.736 82.6705 214.944 82.1818 215.032V215.1C82.8239 215.182 83.3125 215.405 83.6477 215.769C83.9858 216.13 84.1534 216.581 84.1506 217.124C84.1534 217.621 84.0099 218.063 83.7202 218.449C83.4332 218.836 83.0369 219.14 82.5312 219.361C82.0256 219.583 81.446 219.694 80.7926 219.694Z" fill="black"/>
<path d="M74.4528 262.127C73.8164 262.127 73.2496 262.018 72.7525 261.799C72.2582 261.577 71.8675 261.273 71.5806 260.887C71.2965 260.498 71.1502 260.049 71.1417 259.54H72.9996C73.011 259.754 73.0806 259.941 73.2085 260.103C73.3391 260.262 73.5124 260.386 73.7283 260.474C73.9442 260.562 74.1871 260.606 74.457 260.606C74.7383 260.606 74.9869 260.556 75.2028 260.457C75.4187 260.357 75.5877 260.219 75.7099 260.043C75.832 259.867 75.8931 259.664 75.8931 259.434C75.8931 259.201 75.8278 258.995 75.6971 258.816C75.5692 258.634 75.3846 258.492 75.1431 258.39C74.9045 258.288 74.6204 258.237 74.2908 258.237H73.4769V256.881H74.2908C74.5692 256.881 74.815 256.833 75.0281 256.737C75.244 256.64 75.4116 256.506 75.5309 256.336C75.6502 256.163 75.7099 255.961 75.7099 255.731C75.7099 255.512 75.6573 255.32 75.5522 255.156C75.4499 254.988 75.305 254.857 75.1175 254.763C74.9329 254.67 74.717 254.623 74.4698 254.623C74.2198 254.623 73.9911 254.668 73.7837 254.759C73.5763 254.847 73.4102 254.974 73.2852 255.138C73.1602 255.303 73.0934 255.496 73.0849 255.718H71.3164C71.3249 255.215 71.4684 254.772 71.7468 254.388C72.0252 254.005 72.4002 253.705 72.8718 253.489C73.3462 253.271 73.8817 253.161 74.4783 253.161C75.0806 253.161 75.6076 253.271 76.0593 253.489C76.511 253.708 76.8619 254.004 77.1119 254.376C77.3647 254.745 77.4897 255.16 77.4869 255.62C77.4897 256.109 77.3377 256.516 77.0309 256.843C76.7269 257.17 76.3306 257.377 75.842 257.465V257.533C76.484 257.616 76.9727 257.839 77.3079 258.202C77.646 258.563 77.8136 259.015 77.8107 259.558C77.8136 260.055 77.6701 260.496 77.3803 260.883C77.0934 261.269 76.6971 261.573 76.1914 261.795C75.6857 262.016 75.1062 262.127 74.4528 262.127ZM82.5589 262.2C81.826 262.197 81.1953 262.016 80.6669 261.658C80.1413 261.3 79.7365 260.782 79.4524 260.103C79.1712 259.424 79.032 258.607 79.0348 257.653C79.0348 256.701 79.1754 255.89 79.4567 255.219C79.7408 254.549 80.1456 254.039 80.6712 253.69C81.1996 253.337 81.8288 253.161 82.5589 253.161C83.2891 253.161 83.9169 253.337 84.4425 253.69C84.9709 254.042 85.3771 254.553 85.6612 255.224C85.9453 255.891 86.0859 256.701 86.0831 257.653C86.0831 258.61 85.9411 259.428 85.657 260.107C85.3757 260.786 84.9723 261.305 84.4467 261.663C83.9212 262.021 83.2919 262.2 82.5589 262.2ZM82.5589 260.67C83.0589 260.67 83.4581 260.418 83.7564 259.915C84.0547 259.413 84.2024 258.658 84.1996 257.653C84.1996 256.991 84.1314 256.44 83.995 255.999C83.8615 255.559 83.6712 255.228 83.424 255.006C83.1797 254.785 82.8913 254.674 82.5589 254.674C82.0618 254.674 81.6641 254.923 81.3658 255.42C81.0675 255.917 80.9169 256.661 80.9141 257.653C80.9141 258.323 80.9808 258.883 81.1143 259.332C81.2507 259.778 81.4425 260.113 81.6896 260.337C81.9368 260.559 82.2266 260.67 82.5589 260.67Z" fill="#E6ECFB"/>
<path d="M123.084 92.3967C122.447 92.3967 121.881 92.2873 121.383 92.0685C120.889 91.8469 120.498 91.543 120.211 91.1566C119.927 90.7674 119.781 90.3185 119.773 89.81H121.631C121.642 90.0231 121.711 90.2106 121.839 90.3725C121.97 90.5316 122.143 90.6552 122.359 90.7433C122.575 90.8313 122.818 90.8754 123.088 90.8754C123.369 90.8754 123.618 90.8256 123.834 90.7262C124.05 90.6268 124.219 90.489 124.341 90.3129C124.463 90.1367 124.524 89.9336 124.524 89.7035C124.524 89.4705 124.459 89.2646 124.328 89.0856C124.2 88.9038 124.015 88.7617 123.774 88.6594C123.535 88.5572 123.251 88.506 122.922 88.506H122.108V87.1509H122.922C123.2 87.1509 123.446 87.1026 123.659 87.006C123.875 86.9094 124.042 86.7759 124.162 86.6055C124.281 86.4322 124.341 86.2305 124.341 86.0004C124.341 85.7816 124.288 85.5898 124.183 85.4251C124.081 85.2575 123.936 85.1268 123.748 85.033C123.564 84.9393 123.348 84.8924 123.101 84.8924C122.851 84.8924 122.622 84.9379 122.415 85.0288C122.207 85.1168 122.041 85.2433 121.916 85.408C121.791 85.5728 121.724 85.766 121.716 85.9876H119.947C119.956 85.4847 120.099 85.0415 120.378 84.658C120.656 84.2745 121.031 83.9748 121.503 83.7589C121.977 83.5401 122.513 83.4308 123.109 83.4308C123.711 83.4308 124.238 83.5401 124.69 83.7589C125.142 83.9776 125.493 84.2731 125.743 84.6452C125.996 85.0146 126.121 85.4293 126.118 85.8896C126.121 86.3782 125.969 86.7859 125.662 87.1126C125.358 87.4393 124.961 87.6467 124.473 87.7347V87.8029C125.115 87.8853 125.604 88.1083 125.939 88.4719C126.277 88.8327 126.444 89.2844 126.442 89.8271C126.444 90.3242 126.301 90.766 126.011 91.1523C125.724 91.5387 125.328 91.8427 124.822 92.0643C124.317 92.2859 123.737 92.3967 123.084 92.3967Z" fill="#E6ECFB"/>
<path d="M120.008 125.984V134.711H118.163V127.735H118.112L116.113 128.988V127.352L118.274 125.984H120.008ZM125.504 134.903C124.771 134.9 124.141 134.719 123.612 134.362C123.087 134.004 122.682 133.485 122.398 132.806C122.116 132.127 121.977 131.31 121.98 130.356C121.98 129.404 122.121 128.593 122.402 127.923C122.686 127.252 123.091 126.742 123.616 126.393C124.145 126.04 124.774 125.864 125.504 125.864C126.234 125.864 126.862 126.04 127.388 126.393C127.916 126.745 128.322 127.256 128.607 127.927C128.891 128.594 129.031 129.404 129.028 130.356C129.028 131.313 128.886 132.131 128.602 132.81C128.321 133.489 127.918 134.008 127.392 134.366C126.866 134.724 126.237 134.903 125.504 134.903ZM125.504 133.373C126.004 133.373 126.403 133.121 126.702 132.619C127 132.116 127.148 131.362 127.145 130.356C127.145 129.694 127.077 129.143 126.94 128.702C126.807 128.262 126.616 127.931 126.369 127.71C126.125 127.488 125.837 127.377 125.504 127.377C125.007 127.377 124.609 127.626 124.311 128.123C124.013 128.62 123.862 129.364 123.859 130.356C123.859 131.026 123.926 131.586 124.06 132.035C124.196 132.481 124.388 132.816 124.635 133.04C124.882 133.262 125.172 133.373 125.504 133.373Z" fill="#E6ECFB"/>
<path d="M120.008 168.415V177.143H118.163V170.167H118.112L116.113 171.42V169.783L118.274 168.415H120.008ZM122.428 177.143L126.045 169.983V169.924H121.831V168.415H127.955V169.945L124.332 177.143H122.428Z" fill="#E6ECFB"/>
<path d="M114.996 220.723V219.393L118.103 216.517C118.367 216.261 118.589 216.031 118.768 215.826C118.95 215.622 119.087 215.422 119.181 215.225C119.275 215.027 119.322 214.812 119.322 214.582C119.322 214.326 119.263 214.106 119.147 213.922C119.031 213.734 118.871 213.591 118.67 213.491C118.468 213.389 118.239 213.338 117.984 213.338C117.717 213.338 117.484 213.392 117.285 213.5C117.086 213.608 116.933 213.762 116.825 213.964C116.717 214.166 116.663 214.406 116.663 214.684H114.911C114.911 214.113 115.04 213.618 115.299 213.197C115.558 212.777 115.92 212.451 116.386 212.221C116.852 211.991 117.388 211.876 117.996 211.876C118.621 211.876 119.165 211.987 119.629 212.208C120.094 212.427 120.457 212.731 120.715 213.12C120.974 213.51 121.103 213.956 121.103 214.458C121.103 214.788 121.038 215.113 120.907 215.434C120.779 215.755 120.55 216.112 120.221 216.504C119.891 216.893 119.427 217.36 118.827 217.906L117.553 219.154V219.214H121.218V220.723H114.996ZM122.235 219.189V217.735L125.879 211.995H127.132V214.007H126.39L124.093 217.642V217.71H129.271V219.189H122.235ZM126.424 220.723V218.745L126.458 218.102V211.995H128.189V220.723H126.424Z" fill="black"/>
<path opacity="0.5" d="M124.871 253.281V262.008H123.026V255.032H122.975L120.977 256.285V254.648L123.137 253.281H124.871Z" fill="black"/>
<path d="M164.712 90.7433V89.2901L168.355 83.5501H169.608V85.5614H168.867L166.57 89.1964V89.2646H171.748V90.7433H164.712ZM168.901 92.2773V90.3001L168.935 89.6566V83.5501H170.665V92.2773H168.901Z" fill="#E6ECFB"/>
<path d="M164.994 125.984V134.711H163.149V127.735H163.098L161.1 128.988V127.352L163.26 125.984H164.994ZM170.866 125.984V134.711H169.02V127.735H168.969L166.971 128.988V127.352L169.131 125.984H170.866Z" fill="#E6ECFB"/>
<path d="M164.994 168.415V177.143H163.149V170.167H163.098L161.1 171.42V169.783L163.26 168.415H164.994ZM170.324 177.262C169.668 177.262 169.084 177.155 168.573 176.942C168.064 176.726 167.665 176.432 167.376 176.06C167.086 175.688 166.941 175.266 166.941 174.795C166.941 174.431 167.023 174.097 167.188 173.793C167.356 173.486 167.583 173.232 167.87 173.03C168.157 172.826 168.478 172.695 168.833 172.638V172.579C168.367 172.485 167.989 172.259 167.699 171.901C167.41 171.54 167.265 171.121 167.265 170.644C167.265 170.192 167.397 169.79 167.661 169.438C167.925 169.083 168.287 168.805 168.748 168.603C169.211 168.398 169.736 168.296 170.324 168.296C170.912 168.296 171.437 168.398 171.897 168.603C172.36 168.807 172.724 169.087 172.988 169.442C173.252 169.795 173.385 170.195 173.388 170.644C173.385 171.124 173.238 171.543 172.945 171.901C172.653 172.259 172.278 172.485 171.82 172.579V172.638C172.17 172.695 172.486 172.826 172.77 173.03C173.057 173.232 173.285 173.486 173.452 173.793C173.623 174.097 173.709 174.431 173.712 174.795C173.709 175.266 173.563 175.688 173.273 176.06C172.983 176.432 172.583 176.726 172.072 176.942C171.563 177.155 170.981 177.262 170.324 177.262ZM170.324 175.907C170.617 175.907 170.873 175.854 171.091 175.749C171.31 175.641 171.481 175.493 171.603 175.306C171.728 175.116 171.79 174.897 171.79 174.65C171.79 174.397 171.726 174.174 171.599 173.981C171.471 173.785 171.297 173.631 171.079 173.52C170.86 173.407 170.608 173.35 170.324 173.35C170.043 173.35 169.792 173.407 169.57 173.52C169.349 173.631 169.174 173.785 169.046 173.981C168.921 174.174 168.858 174.397 168.858 174.65C168.858 174.897 168.92 175.116 169.042 175.306C169.164 175.493 169.336 175.641 169.557 175.749C169.779 175.854 170.035 175.907 170.324 175.907ZM170.324 172.008C170.569 172.008 170.786 171.958 170.976 171.858C171.167 171.759 171.316 171.621 171.424 171.445C171.532 171.269 171.586 171.066 171.586 170.836C171.586 170.608 171.532 170.41 171.424 170.239C171.316 170.066 171.168 169.931 170.981 169.834C170.793 169.735 170.574 169.685 170.324 169.685C170.077 169.685 169.858 169.735 169.668 169.834C169.478 169.931 169.329 170.066 169.221 170.239C169.116 170.41 169.063 170.608 169.063 170.836C169.063 171.066 169.117 171.269 169.225 171.445C169.333 171.621 169.482 171.759 169.672 171.858C169.863 171.958 170.08 172.008 170.324 172.008Z" fill="#E6ECFB"/>
<path d="M159.981 220.723V219.393L163.087 216.517C163.352 216.261 163.573 216.031 163.752 215.826C163.934 215.622 164.072 215.422 164.165 215.225C164.259 215.027 164.306 214.812 164.306 214.582C164.306 214.326 164.248 214.106 164.131 213.922C164.015 213.734 163.856 213.591 163.654 213.491C163.452 213.389 163.224 213.338 162.968 213.338C162.701 213.338 162.468 213.392 162.269 213.5C162.07 213.608 161.917 213.762 161.809 213.964C161.701 214.166 161.647 214.406 161.647 214.684H159.896C159.896 214.113 160.025 213.618 160.283 213.197C160.542 212.777 160.904 212.451 161.37 212.221C161.836 211.991 162.373 211.876 162.981 211.876C163.606 211.876 164.15 211.987 164.613 212.208C165.079 212.427 165.441 212.731 165.7 213.12C165.958 213.51 166.087 213.956 166.087 214.458C166.087 214.788 166.022 215.113 165.891 215.434C165.763 215.755 165.535 216.112 165.205 216.504C164.876 216.893 164.411 217.36 163.812 217.906L162.538 219.154V219.214H166.202V220.723H159.981ZM170.727 220.842C170.125 220.842 169.588 220.731 169.116 220.51C168.647 220.288 168.275 219.983 168 219.593C167.724 219.204 167.581 218.758 167.569 218.255H169.359C169.379 218.593 169.521 218.868 169.785 219.078C170.049 219.288 170.363 219.393 170.727 219.393C171.017 219.393 171.272 219.329 171.494 219.201C171.718 219.071 171.893 218.89 172.018 218.66C172.146 218.427 172.21 218.16 172.21 217.859C172.21 217.552 172.145 217.282 172.014 217.049C171.886 216.816 171.708 216.635 171.481 216.504C171.254 216.373 170.994 216.306 170.701 216.304C170.446 216.304 170.197 216.356 169.956 216.461C169.717 216.566 169.531 216.71 169.397 216.892L167.757 216.598L168.17 211.995H173.505V213.504H169.691L169.466 215.69H169.517C169.67 215.474 169.902 215.295 170.211 215.153C170.521 215.011 170.868 214.94 171.251 214.94C171.777 214.94 172.245 215.064 172.657 215.311C173.069 215.558 173.395 215.897 173.633 216.329C173.872 216.758 173.99 217.252 173.987 217.812C173.99 218.4 173.853 218.923 173.578 219.38C173.305 219.835 172.923 220.193 172.431 220.454C171.943 220.713 171.375 220.842 170.727 220.842Z" fill="black"/>
<path opacity="0.5" d="M166.059 262.008V260.678L169.165 257.802C169.43 257.546 169.651 257.316 169.83 257.112C170.012 256.907 170.15 256.707 170.244 256.511C170.337 256.312 170.384 256.097 170.384 255.867C170.384 255.612 170.326 255.391 170.21 255.207C170.093 255.019 169.934 254.876 169.732 254.776C169.531 254.674 169.302 254.623 169.046 254.623C168.779 254.623 168.546 254.677 168.347 254.785C168.148 254.893 167.995 255.048 167.887 255.249C167.779 255.451 167.725 255.691 167.725 255.969H165.974C165.974 255.398 166.103 254.903 166.362 254.482C166.62 254.062 166.982 253.737 167.448 253.506C167.914 253.276 168.451 253.161 169.059 253.161C169.684 253.161 170.228 253.272 170.691 253.494C171.157 253.712 171.519 254.016 171.778 254.406C172.036 254.795 172.165 255.241 172.165 255.744C172.165 256.073 172.1 256.398 171.969 256.719C171.842 257.04 171.613 257.397 171.283 257.789C170.954 258.178 170.489 258.646 169.89 259.191L168.616 260.44V260.499H172.281V262.008H166.059Z" fill="black"/>
<path d="M213.016 92.3967C212.414 92.3967 211.877 92.2859 211.405 92.0643C210.936 91.8427 210.564 91.5373 210.289 91.1481C210.013 90.7589 209.87 90.3129 209.858 89.81H211.648C211.668 90.1481 211.81 90.4222 212.074 90.6325C212.338 90.8427 212.652 90.9478 213.016 90.9478C213.306 90.9478 213.561 90.8839 213.783 90.756C214.007 90.6254 214.182 90.445 214.307 90.2148C214.435 89.9819 214.499 89.7148 214.499 89.4137C214.499 89.1069 214.434 88.837 214.303 88.604C214.175 88.3711 213.998 88.1893 213.77 88.0586C213.543 87.9279 213.283 87.8612 212.99 87.8583C212.735 87.8583 212.486 87.9109 212.245 88.016C212.006 88.1211 211.82 88.2646 211.686 88.4464L210.046 88.1523L210.459 83.5501H215.794V85.0586H211.98L211.755 87.2447H211.806C211.959 87.0288 212.191 86.8498 212.5 86.7077C212.81 86.5657 213.157 86.4947 213.54 86.4947C214.066 86.4947 214.534 86.6183 214.946 86.8654C215.358 87.1126 215.684 87.4521 215.922 87.8839C216.161 88.3129 216.279 88.8072 216.276 89.3668C216.279 89.9549 216.142 90.4776 215.867 90.935C215.594 91.3896 215.212 91.7475 214.721 92.0089C214.232 92.2674 213.664 92.3967 213.016 92.3967Z" fill="#E6ECFB"/>
<path d="M209.977 125.984V134.711H208.132V127.735H208.081L206.082 128.988V127.352L208.243 125.984H209.977ZM212.051 134.711V133.381L215.158 130.505C215.422 130.249 215.643 130.019 215.822 129.815C216.004 129.61 216.142 129.41 216.236 129.214C216.33 129.015 216.376 128.8 216.376 128.57C216.376 128.315 216.318 128.094 216.202 127.91C216.085 127.722 215.926 127.579 215.724 127.479C215.523 127.377 215.294 127.326 215.038 127.326C214.771 127.326 214.538 127.38 214.339 127.488C214.141 127.596 213.987 127.751 213.879 127.952C213.771 128.154 213.717 128.394 213.717 128.673H211.966C211.966 128.102 212.095 127.606 212.354 127.185C212.612 126.765 212.974 126.44 213.44 126.21C213.906 125.979 214.443 125.864 215.051 125.864C215.676 125.864 216.22 125.975 216.683 126.197C217.149 126.415 217.511 126.719 217.77 127.109C218.028 127.498 218.158 127.944 218.158 128.447C218.158 128.776 218.092 129.102 217.962 129.423C217.834 129.744 217.605 130.1 217.276 130.492C216.946 130.881 216.482 131.349 215.882 131.894L214.608 133.143V133.202H218.273V134.711H212.051Z" fill="black"/>
<path d="M208.762 168.415V177.143H206.917V170.167H206.866L204.867 171.42V169.783L207.028 168.415H208.762ZM213.994 168.296C214.443 168.296 214.875 168.371 215.289 168.522C215.707 168.672 216.079 168.912 216.406 169.242C216.735 169.572 216.995 170.009 217.186 170.555C217.379 171.097 217.477 171.763 217.48 172.553C217.48 173.295 217.396 173.956 217.228 174.539C217.064 175.118 216.826 175.611 216.517 176.018C216.207 176.424 215.833 176.733 215.396 176.947C214.958 177.157 214.47 177.262 213.93 177.262C213.348 177.262 212.833 177.15 212.387 176.925C211.941 176.698 211.582 176.39 211.309 176.001C211.039 175.608 210.876 175.168 210.819 174.68H212.639C212.71 174.998 212.859 175.245 213.086 175.421C213.314 175.594 213.595 175.681 213.93 175.681C214.498 175.681 214.93 175.434 215.225 174.939C215.521 174.442 215.67 173.762 215.673 172.898H215.613C215.483 173.154 215.306 173.374 215.085 173.559C214.863 173.741 214.609 173.881 214.322 173.981C214.038 174.08 213.735 174.13 213.414 174.13C212.9 174.13 212.441 174.009 212.038 173.768C211.635 173.526 211.316 173.194 211.083 172.77C210.85 172.347 210.734 171.864 210.734 171.322C210.731 170.736 210.866 170.215 211.139 169.758C211.412 169.3 211.792 168.942 212.281 168.684C212.772 168.422 213.343 168.293 213.994 168.296ZM214.007 169.745C213.72 169.745 213.464 169.813 213.24 169.949C213.018 170.086 212.842 170.269 212.711 170.499C212.583 170.729 212.521 170.986 212.524 171.27C212.524 171.557 212.586 171.816 212.711 172.046C212.839 172.273 213.012 172.455 213.231 172.591C213.453 172.725 213.706 172.792 213.99 172.792C214.203 172.792 214.4 172.752 214.582 172.672C214.764 172.593 214.922 172.483 215.055 172.344C215.191 172.202 215.298 172.039 215.375 171.854C215.451 171.67 215.49 171.474 215.49 171.266C215.487 170.991 215.422 170.738 215.294 170.508C215.166 170.278 214.99 170.093 214.765 169.954C214.541 169.814 214.288 169.745 214.007 169.745Z" fill="#E6ECFB"/>
<path d="M204.965 219.574V218.245L208.072 215.368C208.336 215.113 208.558 214.882 208.737 214.678C208.918 214.473 209.056 214.273 209.15 214.077C209.244 213.878 209.29 213.664 209.29 213.434C209.29 213.178 209.232 212.958 209.116 212.773C208.999 212.586 208.84 212.442 208.638 212.343C208.437 212.24 208.208 212.189 207.952 212.189C207.685 212.189 207.452 212.243 207.254 212.351C207.055 212.459 206.901 212.614 206.793 212.816C206.685 213.017 206.631 213.257 206.631 213.536H204.88C204.88 212.965 205.009 212.469 205.268 212.049C205.526 211.628 205.888 211.303 206.354 211.073C206.82 210.843 207.357 210.728 207.965 210.728C208.59 210.728 209.134 210.838 209.597 211.06C210.063 211.279 210.425 211.583 210.684 211.972C210.942 212.361 211.072 212.807 211.072 213.31C211.072 213.64 211.006 213.965 210.876 214.286C210.748 214.607 210.519 214.963 210.19 215.355C209.86 215.745 209.396 216.212 208.796 216.757L207.522 218.006V218.066H211.187V219.574H204.965ZM215.873 219.694C215.424 219.691 214.991 219.615 214.574 219.468C214.159 219.32 213.787 219.08 213.457 218.748C213.127 218.415 212.866 217.975 212.673 217.426C212.483 216.878 212.387 216.205 212.387 215.407C212.39 214.674 212.474 214.019 212.639 213.442C212.806 212.863 213.045 212.371 213.355 211.968C213.667 211.564 214.041 211.257 214.475 211.047C214.91 210.834 215.397 210.728 215.937 210.728C216.52 210.728 217.034 210.841 217.48 211.069C217.926 211.293 218.284 211.598 218.554 211.985C218.826 212.371 218.991 212.804 219.048 213.284H217.228C217.157 212.98 217.008 212.742 216.781 212.569C216.554 212.395 216.272 212.309 215.937 212.309C215.369 212.309 214.937 212.556 214.642 213.05C214.349 213.544 214.2 214.216 214.194 215.066H214.254C214.385 214.807 214.561 214.587 214.782 214.405C215.007 214.221 215.261 214.08 215.545 213.983C215.832 213.884 216.135 213.834 216.453 213.834C216.97 213.834 217.43 213.956 217.833 214.201C218.237 214.442 218.555 214.775 218.788 215.198C219.021 215.621 219.137 216.105 219.137 216.651C219.137 217.242 219 217.767 218.724 218.228C218.451 218.688 218.069 219.049 217.578 219.31C217.089 219.569 216.521 219.696 215.873 219.694ZM215.865 218.245C216.149 218.245 216.403 218.176 216.627 218.04C216.852 217.904 217.028 217.719 217.156 217.486C217.284 217.253 217.348 216.992 217.348 216.702C217.348 216.412 217.284 216.152 217.156 215.922C217.031 215.692 216.858 215.509 216.636 215.373C216.414 215.236 216.162 215.168 215.877 215.168C215.664 215.168 215.467 215.208 215.285 215.287C215.106 215.367 214.949 215.478 214.812 215.62C214.679 215.762 214.574 215.926 214.497 216.114C214.42 216.299 214.382 216.496 214.382 216.706C214.382 216.988 214.446 217.245 214.574 217.478C214.704 217.711 214.88 217.897 215.102 218.036C215.326 218.175 215.581 218.245 215.865 218.245Z" fill="#E6ECFB"/>
<path opacity="0.5" d="M213.054 262.127C212.418 262.127 211.851 262.018 211.354 261.799C210.86 261.577 210.469 261.273 210.182 260.887C209.898 260.498 209.752 260.049 209.743 259.54H211.601C211.613 259.754 211.682 259.941 211.81 260.103C211.941 260.262 212.114 260.386 212.33 260.474C212.546 260.562 212.789 260.606 213.059 260.606C213.34 260.606 213.588 260.556 213.804 260.457C214.02 260.357 214.189 260.219 214.311 260.043C214.434 259.867 214.495 259.664 214.495 259.434C214.495 259.201 214.429 258.995 214.299 258.816C214.171 258.634 213.986 258.492 213.745 258.39C213.506 258.288 213.222 258.237 212.892 258.237H212.078V256.881H212.892C213.171 256.881 213.417 256.833 213.63 256.737C213.846 256.64 214.013 256.506 214.132 256.336C214.252 256.163 214.311 255.961 214.311 255.731C214.311 255.512 214.259 255.32 214.154 255.156C214.051 254.988 213.907 254.857 213.719 254.763C213.534 254.67 213.319 254.623 213.071 254.623C212.821 254.623 212.593 254.668 212.385 254.759C212.178 254.847 212.012 254.974 211.887 255.138C211.762 255.303 211.695 255.496 211.686 255.718H209.918C209.926 255.215 210.07 254.772 210.348 254.388C210.627 254.005 211.002 253.705 211.473 253.489C211.948 253.271 212.483 253.161 213.08 253.161C213.682 253.161 214.209 253.271 214.661 253.489C215.113 253.708 215.463 254.004 215.713 254.376C215.966 254.745 216.091 255.16 216.088 255.62C216.091 256.109 215.939 256.516 215.632 256.843C215.328 257.17 214.932 257.377 214.444 257.465V257.533C215.086 257.616 215.574 257.839 215.909 258.202C216.248 258.563 216.415 259.015 216.412 259.558C216.415 260.055 216.272 260.496 215.982 260.883C215.695 261.269 215.299 261.573 214.793 261.795C214.287 262.016 213.708 262.127 213.054 262.127Z" fill="black"/>
<path d="M258.166 92.3967C257.717 92.3938 257.284 92.3185 256.866 92.1708C256.452 92.0231 256.08 91.783 255.75 91.4506C255.42 91.1183 255.159 90.6779 254.966 90.1296C254.776 89.5813 254.68 88.908 254.68 88.1097C254.683 87.3768 254.767 86.7219 254.932 86.1452C255.099 85.5657 255.338 85.0742 255.648 84.6708C255.96 84.2674 256.334 83.9606 256.768 83.7504C257.203 83.5373 257.69 83.4308 258.23 83.4308C258.813 83.4308 259.327 83.5444 259.773 83.7717C260.219 83.9961 260.577 84.3015 260.847 84.6879C261.119 85.0742 261.284 85.5075 261.341 85.9876H259.521C259.45 85.6836 259.301 85.445 259.074 85.2717C258.847 85.0984 258.565 85.0117 258.23 85.0117C257.662 85.0117 257.23 85.2589 256.935 85.7532C256.642 86.2475 256.493 86.9194 256.487 87.7688H256.547C256.678 87.5103 256.854 87.2901 257.075 87.1083C257.3 86.9237 257.554 86.783 257.838 86.6864C258.125 86.587 258.428 86.5373 258.746 86.5373C259.263 86.5373 259.723 86.6594 260.126 86.9038C260.53 87.1452 260.848 87.4776 261.081 87.9009C261.314 88.3242 261.43 88.8086 261.43 89.354C261.43 89.945 261.293 90.4705 261.017 90.9308C260.744 91.391 260.362 91.7518 259.871 92.0131C259.382 92.2717 258.814 92.3995 258.166 92.3967ZM258.158 90.9478C258.442 90.9478 258.696 90.8796 258.92 90.7433C259.145 90.6069 259.321 90.4222 259.449 90.1893C259.577 89.9563 259.641 89.695 259.641 89.4052C259.641 89.1154 259.577 88.8555 259.449 88.6254C259.324 88.3952 259.151 88.212 258.929 88.0756C258.707 87.9393 258.455 87.8711 258.17 87.8711C257.957 87.8711 257.76 87.9109 257.578 87.9904C257.399 88.07 257.241 88.1808 257.105 88.3228C256.972 88.4648 256.866 88.6296 256.79 88.8171C256.713 89.0018 256.675 89.1992 256.675 89.4094C256.675 89.6907 256.739 89.9478 256.866 90.1808C256.997 90.4137 257.173 90.5998 257.395 90.739C257.619 90.8782 257.874 90.9478 258.158 90.9478Z" fill="#E6ECFB"/>
<path d="M253.75 125.984V134.711H251.905V127.735H251.854L249.855 128.988V127.352L252.016 125.984H253.75ZM259.05 134.83C258.414 134.83 257.847 134.721 257.35 134.502C256.856 134.281 256.465 133.977 256.178 133.59C255.894 133.201 255.748 132.752 255.739 132.244H257.597C257.609 132.457 257.678 132.644 257.806 132.806C257.937 132.965 258.11 133.089 258.326 133.177C258.542 133.265 258.785 133.309 259.055 133.309C259.336 133.309 259.585 133.259 259.8 133.16C260.016 133.06 260.185 132.923 260.308 132.746C260.43 132.57 260.491 132.367 260.491 132.137C260.491 131.904 260.425 131.698 260.295 131.519C260.167 131.337 259.982 131.195 259.741 131.093C259.502 130.991 259.218 130.94 258.888 130.94H258.075V129.585H258.888C259.167 129.585 259.413 129.536 259.626 129.44C259.842 129.343 260.009 129.21 260.129 129.039C260.248 128.866 260.308 128.664 260.308 128.434C260.308 128.215 260.255 128.023 260.15 127.859C260.048 127.691 259.903 127.56 259.715 127.467C259.531 127.373 259.315 127.326 259.067 127.326C258.817 127.326 258.589 127.371 258.381 127.462C258.174 127.55 258.008 127.677 257.883 127.842C257.758 128.006 257.691 128.2 257.683 128.421H255.914C255.923 127.918 256.066 127.475 256.344 127.092C256.623 126.708 256.998 126.408 257.469 126.192C257.944 125.974 258.479 125.864 259.076 125.864C259.678 125.864 260.205 125.974 260.657 126.192C261.109 126.411 261.46 126.707 261.71 127.079C261.962 127.448 262.087 127.863 262.085 128.323C262.087 128.812 261.935 129.219 261.629 129.546C261.325 129.873 260.928 130.08 260.44 130.168V130.237C261.082 130.319 261.57 130.542 261.906 130.906C262.244 131.266 262.411 131.718 262.408 132.261C262.411 132.758 262.268 133.2 261.978 133.586C261.691 133.972 261.295 134.276 260.789 134.498C260.283 134.719 259.704 134.83 259.05 134.83Z" fill="black"/>
<path d="M248.737 177.143V175.813L251.843 172.937C252.107 172.681 252.329 172.451 252.508 172.246C252.69 172.042 252.828 171.841 252.921 171.645C253.015 171.447 253.062 171.232 253.062 171.002C253.062 170.746 253.004 170.526 252.887 170.341C252.771 170.154 252.612 170.01 252.41 169.911C252.208 169.809 251.98 169.758 251.724 169.758C251.457 169.758 251.224 169.812 251.025 169.92C250.826 170.028 250.673 170.182 250.565 170.384C250.457 170.586 250.403 170.826 250.403 171.104H248.651C248.651 170.533 248.781 170.037 249.039 169.617C249.298 169.197 249.66 168.871 250.126 168.641C250.592 168.411 251.129 168.296 251.737 168.296C252.362 168.296 252.906 168.407 253.369 168.628C253.835 168.847 254.197 169.151 254.455 169.54C254.714 169.93 254.843 170.376 254.843 170.878C254.843 171.208 254.778 171.533 254.647 171.854C254.519 172.175 254.291 172.532 253.961 172.924C253.632 173.313 253.167 173.78 252.568 174.326L251.294 175.574V175.634H254.958V177.143H248.737ZM259.717 177.334C258.984 177.331 258.354 177.151 257.825 176.793C257.3 176.435 256.895 175.917 256.611 175.238C256.329 174.559 256.19 173.742 256.193 172.787C256.193 171.836 256.334 171.025 256.615 170.354C256.899 169.684 257.304 169.174 257.829 168.824C258.358 168.472 258.987 168.296 259.717 168.296C260.447 168.296 261.075 168.472 261.601 168.824C262.129 169.177 262.535 169.688 262.819 170.358C263.104 171.026 263.244 171.836 263.241 172.787C263.241 173.745 263.099 174.563 262.815 175.242C262.534 175.921 262.131 176.439 261.605 176.797C261.079 177.155 260.45 177.334 259.717 177.334ZM259.717 175.805C260.217 175.805 260.616 175.553 260.915 175.05C261.213 174.547 261.361 173.793 261.358 172.787C261.358 172.126 261.29 171.574 261.153 171.134C261.02 170.694 260.829 170.363 260.582 170.141C260.338 169.92 260.05 169.809 259.717 169.809C259.22 169.809 258.822 170.057 258.524 170.555C258.226 171.052 258.075 171.796 258.072 172.787C258.072 173.458 258.139 174.018 258.273 174.466C258.409 174.912 258.601 175.248 258.848 175.472C259.095 175.694 259.385 175.805 259.717 175.805Z" fill="black"/>
<path d="M251.168 219.574V218.245L254.275 215.368C254.539 215.113 254.761 214.882 254.94 214.678C255.121 214.473 255.259 214.273 255.353 214.077C255.447 213.878 255.494 213.664 255.494 213.434C255.494 213.178 255.435 212.958 255.319 212.773C255.202 212.586 255.043 212.442 254.842 212.343C254.64 212.24 254.411 212.189 254.156 212.189C253.888 212.189 253.656 212.243 253.457 212.351C253.258 212.459 253.104 212.614 252.996 212.816C252.888 213.017 252.835 213.257 252.835 213.536H251.083C251.083 212.965 251.212 212.469 251.471 212.049C251.729 211.628 252.092 211.303 252.558 211.073C253.023 210.843 253.56 210.728 254.168 210.728C254.793 210.728 255.337 210.838 255.8 211.06C256.266 211.279 256.629 211.583 256.887 211.972C257.146 212.361 257.275 212.807 257.275 213.31C257.275 213.64 257.21 213.965 257.079 214.286C256.951 214.607 256.722 214.963 256.393 215.355C256.063 215.745 255.599 216.212 254.999 216.757L253.725 218.006V218.066H257.39V219.574H251.168ZM259.072 219.574L262.69 212.415V212.355H258.475V210.847H264.599V212.377L260.977 219.574H259.072Z" fill="#E6ECFB"/>
<path opacity="0.5" d="M253.466 260.474V259.021L257.109 253.281H258.362V255.292H257.621L255.324 258.927V258.995H260.501V260.474H253.466ZM257.655 262.008V260.031L257.689 259.387V253.281H259.419V262.008H257.655Z" fill="black"/>
<path d="M300.146 92.2773L303.764 85.1183V85.0586H299.55V83.5501H305.673V85.0799L302.051 92.2773H300.146Z" fill="black"/>
<path d="M298.733 125.984V134.711H296.888V127.735H296.836L294.838 128.988V127.352L296.998 125.984H298.733ZM300.675 133.177V131.724L304.318 125.984H305.571V127.995H304.83L302.533 131.63V131.698H307.71V133.177H300.675ZM304.864 134.711V132.734L304.898 132.09V125.984H306.628V134.711H304.864Z" fill="black"/>
<path d="M294.936 177.143V175.813L298.042 172.937C298.307 172.681 298.528 172.451 298.707 172.246C298.889 172.042 299.027 171.841 299.121 171.645C299.214 171.447 299.261 171.232 299.261 171.002C299.261 170.746 299.203 170.526 299.086 170.341C298.97 170.154 298.811 170.01 298.609 169.911C298.407 169.809 298.179 169.758 297.923 169.758C297.656 169.758 297.423 169.812 297.224 169.92C297.025 170.028 296.872 170.182 296.764 170.384C296.656 170.586 296.602 170.826 296.602 171.104H294.851C294.851 170.533 294.98 170.037 295.238 169.617C295.497 169.197 295.859 168.871 296.325 168.641C296.791 168.411 297.328 168.296 297.936 168.296C298.561 168.296 299.105 168.407 299.568 168.628C300.034 168.847 300.396 169.151 300.655 169.54C300.913 169.93 301.042 170.376 301.042 170.878C301.042 171.208 300.977 171.533 300.846 171.854C300.719 172.175 300.49 172.532 300.16 172.924C299.831 173.313 299.366 173.78 298.767 174.326L297.493 175.574V175.634H301.157V177.143H294.936ZM306.291 168.415V177.143H304.446V170.167H304.395L302.396 171.42V169.783L304.557 168.415H306.291Z" fill="black"/>
<path d="M293.721 219.574V218.245L296.828 215.368C297.092 215.113 297.313 214.882 297.492 214.678C297.674 214.473 297.812 214.273 297.906 214.077C297.999 213.878 298.046 213.664 298.046 213.434C298.046 213.178 297.988 212.958 297.872 212.773C297.755 212.586 297.596 212.442 297.394 212.343C297.193 212.24 296.964 212.189 296.708 212.189C296.441 212.189 296.208 212.243 296.009 212.351C295.811 212.459 295.657 212.614 295.549 212.816C295.441 213.017 295.387 213.257 295.387 213.536H293.636C293.636 212.965 293.765 212.469 294.024 212.049C294.282 211.628 294.644 211.303 295.11 211.073C295.576 210.843 296.113 210.728 296.721 210.728C297.346 210.728 297.89 210.838 298.353 211.06C298.819 211.279 299.181 211.583 299.44 211.972C299.698 212.361 299.828 212.807 299.828 213.31C299.828 213.64 299.762 213.965 299.632 214.286C299.504 214.607 299.275 214.963 298.945 215.355C298.616 215.745 298.151 216.212 297.552 216.757L296.278 218.006V218.066H299.943V219.574H293.721ZM304.535 219.694C303.879 219.694 303.295 219.587 302.784 219.374C302.275 219.158 301.876 218.864 301.586 218.492C301.297 218.12 301.152 217.698 301.152 217.226C301.152 216.863 301.234 216.529 301.399 216.225C301.567 215.918 301.794 215.664 302.081 215.462C302.368 215.257 302.689 215.127 303.044 215.07V215.01C302.578 214.917 302.2 214.691 301.91 214.333C301.621 213.972 301.476 213.553 301.476 213.076C301.476 212.624 301.608 212.222 301.872 211.87C302.136 211.515 302.498 211.236 302.959 211.034C303.422 210.83 303.947 210.728 304.535 210.728C305.123 210.728 305.648 210.83 306.108 211.034C306.571 211.239 306.934 211.519 307.199 211.874C307.463 212.226 307.596 212.627 307.599 213.076C307.596 213.556 307.449 213.975 307.156 214.333C306.863 214.691 306.488 214.917 306.031 215.01V215.07C306.381 215.127 306.697 215.257 306.981 215.462C307.268 215.664 307.496 215.918 307.663 216.225C307.834 216.529 307.92 216.863 307.923 217.226C307.92 217.698 307.774 218.12 307.484 218.492C307.194 218.864 306.794 219.158 306.282 219.374C305.774 219.587 305.192 219.694 304.535 219.694ZM304.535 218.338C304.828 218.338 305.084 218.286 305.302 218.181C305.521 218.073 305.692 217.925 305.814 217.738C305.939 217.547 306.001 217.328 306.001 217.081C306.001 216.828 305.937 216.605 305.809 216.412C305.682 216.216 305.508 216.063 305.29 215.952C305.071 215.838 304.819 215.782 304.535 215.782C304.254 215.782 304.003 215.838 303.781 215.952C303.559 216.063 303.385 216.216 303.257 216.412C303.132 216.605 303.069 216.828 303.069 217.081C303.069 217.328 303.131 217.547 303.253 217.738C303.375 217.925 303.547 218.073 303.768 218.181C303.99 218.286 304.246 218.338 304.535 218.338ZM304.535 214.439C304.78 214.439 304.997 214.39 305.187 214.29C305.378 214.191 305.527 214.053 305.635 213.877C305.743 213.701 305.797 213.498 305.797 213.267C305.797 213.04 305.743 212.841 305.635 212.671C305.527 212.498 305.379 212.363 305.192 212.266C305.004 212.167 304.785 212.117 304.535 212.117C304.288 212.117 304.069 212.167 303.879 212.266C303.689 212.363 303.54 212.498 303.432 212.671C303.327 212.841 303.274 213.04 303.274 213.267C303.274 213.498 303.328 213.701 303.436 213.877C303.544 214.053 303.693 214.191 303.883 214.29C304.074 214.39 304.291 214.439 304.535 214.439Z" fill="black"/>
<path d="M301.774 262.127C301.172 262.127 300.635 262.016 300.163 261.795C299.694 261.573 299.322 261.268 299.047 260.879C298.771 260.489 298.627 260.043 298.616 259.54H300.406C300.426 259.879 300.568 260.153 300.832 260.363C301.096 260.573 301.41 260.678 301.774 260.678C302.064 260.678 302.319 260.614 302.541 260.487C302.765 260.356 302.94 260.175 303.065 259.945C303.193 259.712 303.257 259.445 303.257 259.144C303.257 258.837 303.191 258.567 303.061 258.335C302.933 258.102 302.755 257.92 302.528 257.789C302.301 257.658 302.041 257.592 301.748 257.589C301.493 257.589 301.244 257.641 301.002 257.746C300.764 257.852 300.578 257.995 300.444 258.177L298.804 257.883L299.217 253.281H304.552V254.789H300.738L300.512 256.975H300.564C300.717 256.759 300.949 256.58 301.258 256.438C301.568 256.296 301.914 256.225 302.298 256.225C302.824 256.225 303.292 256.349 303.704 256.596C304.116 256.843 304.441 257.183 304.68 257.614C304.919 258.043 305.037 258.538 305.034 259.097C305.037 259.685 304.9 260.208 304.625 260.665C304.352 261.12 303.97 261.478 303.478 261.739C302.99 261.998 302.422 262.127 301.774 262.127Z" fill="black" fill-opacity="0.5"/>
<path d="M21.9883 47.5527H19.2951V38.8255H22.1076C22.9542 38.8255 23.6786 39.0002 24.2809 39.3496C24.8832 39.6962 25.3448 40.1948 25.6658 40.8453C25.9869 41.4931 26.1474 42.2686 26.1474 43.1721C26.1474 44.0811 25.9854 44.8638 25.6616 45.5201C25.3377 46.1735 24.8661 46.6763 24.2468 47.0286C23.6275 47.378 22.8746 47.5527 21.9883 47.5527ZM20.3519 46.6152H21.9201C22.6417 46.6152 23.2397 46.476 23.7141 46.1976C24.1886 45.9192 24.5423 45.5229 24.7752 45.0087C25.0082 44.4945 25.1246 43.8823 25.1246 43.1721C25.1246 42.4675 25.0096 41.861 24.7795 41.3524C24.5494 40.8411 24.2056 40.449 23.7482 40.1763C23.2908 39.9007 22.7212 39.763 22.0394 39.763H20.3519V46.6152ZM30.4428 47.6891C29.8519 47.6891 29.3335 47.5485 28.8874 47.2672C28.4442 46.986 28.0977 46.5925 27.8477 46.0868C27.6005 45.5811 27.4769 44.9902 27.4769 44.3141C27.4769 43.6323 27.6005 43.0371 27.8477 42.5286C28.0977 42.0201 28.4442 41.6252 28.8874 41.3439C29.3335 41.0627 29.8519 40.9221 30.4428 40.9221C31.0337 40.9221 31.5508 41.0627 31.994 41.3439C32.44 41.6252 32.7866 42.0201 33.0337 42.5286C33.2837 43.0371 33.4087 43.6323 33.4087 44.3141C33.4087 44.9902 33.2837 45.5811 33.0337 46.0868C32.7866 46.5925 32.44 46.986 31.994 47.2672C31.5508 47.5485 31.0337 47.6891 30.4428 47.6891ZM30.4428 46.7857C30.8917 46.7857 31.261 46.6706 31.5508 46.4405C31.8406 46.2104 32.055 45.9078 32.1942 45.5328C32.3335 45.1578 32.4031 44.7516 32.4031 44.3141C32.4031 43.8766 32.3335 43.4689 32.1942 43.0911C32.055 42.7132 31.8406 42.4078 31.5508 42.1749C31.261 41.9419 30.8917 41.8255 30.4428 41.8255C29.994 41.8255 29.6246 41.9419 29.3349 42.1749C29.0451 42.4078 28.8306 42.7132 28.6914 43.0911C28.5522 43.4689 28.4826 43.8766 28.4826 44.3141C28.4826 44.7516 28.5522 45.1578 28.6914 45.5328C28.8306 45.9078 29.0451 46.2104 29.3349 46.4405C29.6246 46.6706 29.994 46.7857 30.4428 46.7857ZM34.9439 47.5527V41.0073H35.9155V42.03H36.0007C36.1371 41.6806 36.3572 41.4093 36.6612 41.2161C36.9652 41.0201 37.3303 40.9221 37.7564 40.9221C38.1882 40.9221 38.5476 41.0201 38.8345 41.2161C39.1243 41.4093 39.3501 41.6806 39.5121 42.03H39.5803C39.7479 41.6919 39.9993 41.4235 40.3345 41.2246C40.6697 41.0229 41.0717 40.9221 41.5405 40.9221C42.1257 40.9221 42.6044 41.1053 42.9766 41.4718C43.3487 41.8354 43.5348 42.4022 43.5348 43.1721V47.5527H42.5291V43.1721C42.5291 42.6891 42.397 42.3439 42.1328 42.1365C41.8686 41.9292 41.5575 41.8255 41.1996 41.8255C40.7393 41.8255 40.3828 41.9647 40.13 42.2431C39.8771 42.5186 39.7507 42.8681 39.7507 43.2914V47.5527H38.728V43.0698C38.728 42.6976 38.6072 42.3979 38.3658 42.1706C38.1243 41.9405 37.8132 41.8255 37.4325 41.8255C37.1712 41.8255 36.9268 41.8951 36.6996 42.0343C36.4751 42.1735 36.2933 42.3667 36.1541 42.6138C36.0178 42.8581 35.9496 43.1408 35.9496 43.4618V47.5527H34.9439Z" fill="#26213B"/>
<path d="M71.4838 39.8588C71.4327 39.427 71.2253 39.0918 70.8617 38.8532C70.498 38.6145 70.052 38.4952 69.5236 38.4952C69.1373 38.4952 68.7992 38.5577 68.5094 38.6827C68.2225 38.8077 67.998 38.9796 67.8361 39.1983C67.677 39.4171 67.5975 39.6657 67.5975 39.9441C67.5975 40.177 67.6529 40.3773 67.7637 40.5449C67.8773 40.7097 68.0222 40.8475 68.1983 40.9583C68.3745 41.0662 68.5591 41.1557 68.7523 41.2267C68.9455 41.2949 69.123 41.3503 69.285 41.3929L70.1713 41.6316C70.3986 41.6912 70.6515 41.7736 70.9299 41.8787C71.2111 41.9838 71.4796 42.1273 71.7353 42.3091C71.9938 42.4881 72.2069 42.7182 72.3745 42.9995C72.5421 43.2807 72.6259 43.6259 72.6259 44.035C72.6259 44.5066 72.5023 44.9327 72.2551 45.3134C72.0108 45.6941 71.6529 45.9966 71.1813 46.2211C70.7125 46.4455 70.1429 46.5577 69.4725 46.5577C68.8475 46.5577 68.3063 46.4569 67.8489 46.2551C67.3944 46.0534 67.0364 45.7722 66.775 45.4114C66.5165 45.0506 66.3702 44.6316 66.3361 44.1543H67.427C67.4554 44.4838 67.5662 44.7566 67.7594 44.9725C67.9554 45.1855 68.2026 45.3446 68.5009 45.4498C68.802 45.552 69.1259 45.6032 69.4725 45.6032C69.8759 45.6032 70.2381 45.5378 70.5591 45.4071C70.8801 45.2736 71.1344 45.089 71.3219 44.8532C71.5094 44.6145 71.6032 44.3361 71.6032 44.0179C71.6032 43.7282 71.5222 43.4924 71.3603 43.3105C71.1983 43.1287 70.9853 42.981 70.7211 42.8674C70.4569 42.7537 70.1713 42.6543 69.8645 42.5691L68.7907 42.2623C68.1088 42.0662 67.5691 41.7864 67.1713 41.4228C66.7736 41.0591 66.5748 40.5833 66.5748 39.9952C66.5748 39.5066 66.7069 39.0804 66.9711 38.7168C67.2381 38.3503 67.5961 38.0662 68.0449 37.8645C68.4966 37.66 69.0009 37.5577 69.5577 37.5577C70.1202 37.5577 70.6202 37.6586 71.0577 37.8603C71.4952 38.0591 71.8418 38.3319 72.0975 38.6784C72.356 39.025 72.4924 39.4185 72.5066 39.8588H71.4838ZM76.9714 46.5407C76.3407 46.5407 75.7967 46.4015 75.3393 46.123C74.8848 45.8418 74.5339 45.4498 74.2868 44.9469C74.0424 44.4412 73.9203 43.8532 73.9203 43.1827C73.9203 42.5123 74.0424 41.9213 74.2868 41.41C74.5339 40.8958 74.8777 40.4952 75.318 40.2083C75.7612 39.9185 76.2782 39.7736 76.8691 39.7736C77.21 39.7736 77.5467 39.8304 77.8791 39.9441C78.2115 40.0577 78.514 40.2424 78.7868 40.498C79.0595 40.7509 79.2768 41.0861 79.4387 41.5037C79.6007 41.9213 79.6816 42.4355 79.6816 43.0463V43.4725H74.6362V42.6032H78.6589C78.6589 42.2338 78.585 41.9043 78.4373 41.6145C78.2924 41.3248 78.085 41.0961 77.8152 40.9284C77.5481 40.7608 77.2328 40.677 76.8691 40.677C76.4686 40.677 76.122 40.7765 75.8294 40.9753C75.5396 41.1713 75.3166 41.427 75.1603 41.7424C75.0041 42.0577 74.926 42.3958 74.926 42.7566V43.3361C74.926 43.8304 75.0112 44.2495 75.1816 44.5932C75.3549 44.9341 75.595 45.1941 75.9018 45.373C76.2086 45.5492 76.5652 45.6373 76.9714 45.6373C77.2356 45.6373 77.4743 45.6003 77.6873 45.5265C77.9032 45.4498 78.0893 45.3361 78.2456 45.1855C78.4018 45.0321 78.5225 44.8418 78.6078 44.6145L79.5794 44.8873C79.4771 45.2168 79.3052 45.5066 79.0637 45.7566C78.8223 46.0037 78.524 46.1969 78.1689 46.3361C77.8137 46.4725 77.4146 46.5407 76.9714 46.5407ZM83.8535 48.9952C83.3677 48.9952 82.9501 48.9327 82.6007 48.8077C82.2512 48.6855 81.96 48.5236 81.7271 48.3219C81.497 48.123 81.3137 47.91 81.1774 47.6827L81.9785 47.1202C82.0694 47.2395 82.1845 47.3759 82.3237 47.5293C82.4629 47.6855 82.6532 47.8205 82.8947 47.9341C83.139 48.0506 83.4586 48.1088 83.8535 48.1088C84.3819 48.1088 84.818 47.981 85.1618 47.7253C85.5055 47.4696 85.6774 47.0691 85.6774 46.5236V45.1941H85.5922C85.5183 45.3134 85.4132 45.4611 85.2768 45.6373C85.1433 45.8105 84.9501 45.9654 84.6973 46.1017C84.4473 46.2353 84.1092 46.302 83.6831 46.302C83.1547 46.302 82.6802 46.177 82.2598 45.927C81.8422 45.677 81.5112 45.3134 81.2669 44.8361C81.0254 44.3588 80.9047 43.7793 80.9047 43.0975C80.9047 42.427 81.0225 41.8432 81.2583 41.3461C81.4941 40.8461 81.8223 40.4597 82.2427 40.187C82.6632 39.9114 83.149 39.7736 83.7001 39.7736C84.1262 39.7736 84.4643 39.8446 84.7143 39.9867C84.9672 40.1259 85.1603 40.285 85.2939 40.464C85.4302 40.6401 85.5353 40.785 85.6092 40.8986H85.7115V39.8588H86.6831V46.5918C86.6831 47.1543 86.5552 47.6117 86.2995 47.964C86.0467 48.3191 85.7058 48.579 85.2768 48.7438C84.8507 48.9114 84.3762 48.9952 83.8535 48.9952ZM83.8194 45.3986C84.2228 45.3986 84.5637 45.3063 84.8422 45.1216C85.1206 44.937 85.3322 44.6713 85.4771 44.3248C85.622 43.9782 85.6944 43.5634 85.6944 43.0804C85.6944 42.6088 85.6234 42.1926 85.4814 41.8319C85.3393 41.4711 85.1291 41.1884 84.8507 40.9838C84.5723 40.7793 84.2285 40.677 83.8194 40.677C83.3933 40.677 83.0382 40.785 82.7541 41.0009C82.4728 41.2168 82.2612 41.5066 82.1191 41.8702C81.9799 42.2338 81.9103 42.6373 81.9103 43.0804C81.9103 43.535 81.9814 43.937 82.1234 44.2864C82.2683 44.633 82.4814 44.9057 82.7626 45.1046C83.0467 45.3006 83.399 45.3986 83.8194 45.3986Z" fill="#26213B"/>
<path d="M113.65 39.763V38.8255H120.195V39.763H117.451V47.5527H116.394V39.763H113.65ZM123.485 47.6891C122.854 47.6891 122.31 47.5499 121.853 47.2715C121.398 46.9902 121.048 46.5982 120.8 46.0953C120.556 45.5897 120.434 45.0016 120.434 44.3311C120.434 43.6607 120.556 43.0698 120.8 42.5584C121.048 42.0442 121.391 41.6436 121.832 41.3567C122.275 41.0669 122.792 40.9221 123.383 40.9221C123.724 40.9221 124.06 40.9789 124.393 41.0925C124.725 41.2061 125.028 41.3908 125.3 41.6465C125.573 41.8993 125.79 42.2346 125.952 42.6522C126.114 43.0698 126.195 43.584 126.195 44.1948V44.6209H121.15V43.7516H125.173C125.173 43.3823 125.099 43.0527 124.951 42.763C124.806 42.4732 124.599 42.2445 124.329 42.0769C124.062 41.9093 123.746 41.8255 123.383 41.8255C122.982 41.8255 122.636 41.9249 122.343 42.1238C122.053 42.3198 121.83 42.5755 121.674 42.8908C121.518 43.2061 121.44 43.5442 121.44 43.905V44.4846C121.44 44.9789 121.525 45.3979 121.695 45.7417C121.869 46.0826 122.109 46.3425 122.415 46.5215C122.722 46.6976 123.079 46.7857 123.485 46.7857C123.749 46.7857 123.988 46.7488 124.201 46.6749C124.417 46.5982 124.603 46.4846 124.759 46.334C124.915 46.1806 125.036 45.9902 125.121 45.763L126.093 46.0357C125.991 46.3652 125.819 46.655 125.577 46.905C125.336 47.1522 125.038 47.3453 124.683 47.4846C124.327 47.6209 123.928 47.6891 123.485 47.6891ZM127.725 47.5527V41.0073H128.697V41.9959H128.765C128.884 41.6721 129.1 41.4093 129.413 41.2076C129.725 41.0059 130.077 40.905 130.469 40.905C130.543 40.905 130.636 40.9064 130.746 40.9093C130.857 40.9121 130.941 40.9164 130.998 40.9221V41.9448C130.964 41.9363 130.886 41.9235 130.763 41.9064C130.644 41.8865 130.518 41.8766 130.384 41.8766C130.066 41.8766 129.782 41.9434 129.532 42.0769C129.285 42.2076 129.089 42.3894 128.944 42.6223C128.802 42.8525 128.731 43.1152 128.731 43.4107V47.5527H127.725Z" fill="#26213B"/>
<path d="M159.854 44.8255H161.013L161.985 46.1039L162.241 46.4448L163.689 48.3709H162.53L161.576 47.0925L161.337 46.7686L159.854 44.8255ZM164.047 43.1891C164.047 44.1096 163.881 44.905 163.549 45.5755C163.216 46.2459 162.76 46.763 162.181 47.1266C161.601 47.4902 160.939 47.6721 160.195 47.6721C159.451 47.6721 158.789 47.4902 158.209 47.1266C157.63 46.763 157.174 46.2459 156.841 45.5755C156.509 44.905 156.343 44.1096 156.343 43.1891C156.343 42.2686 156.509 41.4732 156.841 40.8027C157.174 40.1323 157.63 39.6152 158.209 39.2516C158.789 38.888 159.451 38.7061 160.195 38.7061C160.939 38.7061 161.601 38.888 162.181 39.2516C162.76 39.6152 163.216 40.1323 163.549 40.8027C163.881 41.4732 164.047 42.2686 164.047 43.1891ZM163.025 43.1891C163.025 42.4334 162.898 41.7956 162.645 41.2757C162.395 40.7559 162.056 40.3624 161.627 40.0953C161.201 39.8283 160.724 39.6948 160.195 39.6948C159.667 39.6948 159.188 39.8283 158.759 40.0953C158.333 40.3624 157.993 40.7559 157.741 41.2757C157.491 41.7956 157.366 42.4334 157.366 43.1891C157.366 43.9448 157.491 44.5826 157.741 45.1025C157.993 45.6223 158.333 46.0158 158.759 46.2828C159.188 46.5499 159.667 46.6834 160.195 46.6834C160.724 46.6834 161.201 46.5499 161.627 46.2828C162.056 46.0158 162.395 45.6223 162.645 45.1025C162.898 44.5826 163.025 43.9448 163.025 43.1891ZM169.813 44.8766V41.0073H170.819V47.5527H169.813V46.4448H169.745C169.591 46.7772 169.353 47.0598 169.029 47.2928C168.705 47.5229 168.296 47.638 167.802 47.638C167.393 47.638 167.029 47.5485 166.711 47.3695C166.393 47.1877 166.143 46.915 165.961 46.5513C165.779 46.1848 165.688 45.7232 165.688 45.1664V41.0073H166.694V45.0982C166.694 45.5755 166.827 45.9561 167.094 46.2402C167.364 46.5243 167.708 46.6664 168.126 46.6664C168.376 46.6664 168.63 46.6025 168.888 46.4746C169.15 46.3468 169.368 46.1507 169.545 45.8865C169.724 45.6223 169.813 45.2857 169.813 44.8766ZM174.587 47.7061C174.172 47.7061 173.796 47.628 173.458 47.4718C173.119 47.3127 172.851 47.084 172.652 46.7857C172.453 46.4846 172.354 46.1209 172.354 45.6948C172.354 45.3198 172.428 45.0158 172.575 44.7828C172.723 44.5471 172.921 44.3624 173.168 44.2289C173.415 44.0953 173.688 43.9959 173.986 43.9306C174.287 43.8624 174.59 43.8084 174.894 43.7686C175.291 43.7175 175.614 43.6792 175.861 43.6536C176.111 43.6252 176.293 43.5783 176.406 43.513C176.523 43.4476 176.581 43.334 176.581 43.1721V43.138C176.581 42.7175 176.466 42.3908 176.236 42.1578C176.009 41.9249 175.664 41.8084 175.2 41.8084C174.72 41.8084 174.344 41.9135 174.071 42.1238C173.798 42.334 173.607 42.5584 173.496 42.7971L172.541 42.4561C172.712 42.0584 172.939 41.7488 173.223 41.5272C173.51 41.3027 173.823 41.1465 174.161 41.0584C174.502 40.9675 174.837 40.9221 175.166 40.9221C175.377 40.9221 175.618 40.9476 175.891 40.9988C176.166 41.0471 176.432 41.1479 176.688 41.3013C176.946 41.4547 177.161 41.6863 177.331 41.9959C177.502 42.3056 177.587 42.7203 177.587 43.2402V47.5527H176.581V46.6664H176.53C176.462 46.8084 176.348 46.9604 176.189 47.1223C176.03 47.2843 175.818 47.4221 175.554 47.5357C175.29 47.6493 174.968 47.7061 174.587 47.7061ZM174.74 46.8027C175.138 46.8027 175.473 46.7246 175.746 46.5684C176.021 46.4121 176.229 46.2104 176.368 45.9632C176.51 45.7161 176.581 45.4561 176.581 45.1834V44.263C176.539 44.3141 176.445 44.361 176.3 44.4036C176.158 44.4434 175.993 44.4789 175.806 44.5101C175.621 44.5385 175.441 44.5641 175.264 44.5868C175.091 44.6067 174.95 44.6238 174.843 44.638C174.581 44.6721 174.337 44.7275 174.11 44.8042C173.885 44.878 173.703 44.9902 173.564 45.1408C173.428 45.2885 173.36 45.4902 173.36 45.7459C173.36 46.0953 173.489 46.3596 173.747 46.5385C174.009 46.7147 174.34 46.8027 174.74 46.8027Z" fill="#26213B"/>
<path d="M206.055 45.97H207.214L208.186 47.2484L208.442 47.5893L209.891 49.5154H208.732L207.777 48.237L207.538 47.9132L206.055 45.97ZM210.249 44.3336C210.249 45.2541 210.082 46.0495 209.75 46.72C209.418 47.3904 208.962 47.9075 208.382 48.2711C207.803 48.6348 207.141 48.8166 206.396 48.8166C205.652 48.8166 204.99 48.6348 204.411 48.2711C203.831 47.9075 203.375 47.3904 203.043 46.72C202.71 46.0495 202.544 45.2541 202.544 44.3336C202.544 43.4132 202.71 42.6177 203.043 41.9473C203.375 41.2768 203.831 40.7598 204.411 40.3961C204.99 40.0325 205.652 39.8507 206.396 39.8507C207.141 39.8507 207.803 40.0325 208.382 40.3961C208.962 40.7598 209.418 41.2768 209.75 41.9473C210.082 42.6177 210.249 43.4132 210.249 44.3336ZM209.226 44.3336C209.226 43.5779 209.099 42.9402 208.847 42.4203C208.597 41.9004 208.257 41.5069 207.828 41.2399C207.402 40.9728 206.925 40.8393 206.396 40.8393C205.868 40.8393 205.389 40.9728 204.96 41.2399C204.534 41.5069 204.195 41.9004 203.942 42.4203C203.692 42.9402 203.567 43.5779 203.567 44.3336C203.567 45.0893 203.692 45.7271 203.942 46.247C204.195 46.7669 204.534 47.1603 204.96 47.4274C205.389 47.6944 205.868 47.8279 206.396 47.8279C206.925 47.8279 207.402 47.6944 207.828 47.4274C208.257 47.1603 208.597 46.7669 208.847 46.247C209.099 45.7271 209.226 45.0893 209.226 44.3336ZM216.014 46.0211V42.1518H217.02V48.6973H216.014V47.5893H215.946C215.793 47.9217 215.554 48.2044 215.23 48.4373C214.906 48.6674 214.497 48.7825 214.003 48.7825C213.594 48.7825 213.23 48.693 212.912 48.514C212.594 48.3322 212.344 48.0595 212.162 47.6958C211.98 47.3294 211.889 46.8677 211.889 46.3109V42.1518H212.895V46.2427C212.895 46.72 213.028 47.1007 213.295 47.3848C213.565 47.6689 213.909 47.8109 214.327 47.8109C214.577 47.8109 214.831 47.747 215.089 47.6191C215.351 47.4913 215.57 47.2953 215.746 47.0311C215.925 46.7669 216.014 46.4302 216.014 46.0211ZM218.862 48.6973V42.1518H219.868V48.6973H218.862ZM219.373 41.0609C219.177 41.0609 219.008 40.9941 218.866 40.8606C218.727 40.7271 218.657 40.5666 218.657 40.3791C218.657 40.1916 218.727 40.0311 218.866 39.8975C219.008 39.764 219.177 39.6973 219.373 39.6973C219.569 39.6973 219.737 39.764 219.876 39.8975C220.018 40.0311 220.089 40.1916 220.089 40.3791C220.089 40.5666 220.018 40.7271 219.876 40.8606C219.737 40.9941 219.569 41.0609 219.373 41.0609Z" fill="#26213B"/>
<path d="M251.427 42.1518C251.376 41.72 251.169 41.3848 250.805 41.1461C250.441 40.9075 249.995 40.7882 249.467 40.7882C249.081 40.7882 248.743 40.8507 248.453 40.9757C248.166 41.1007 247.941 41.2725 247.779 41.4913C247.62 41.71 247.541 41.9586 247.541 42.237C247.541 42.47 247.596 42.6703 247.707 42.8379C247.821 43.0027 247.966 43.1404 248.142 43.2512C248.318 43.3592 248.502 43.4487 248.696 43.5197C248.889 43.5879 249.066 43.6433 249.228 43.6859L250.115 43.9245C250.342 43.9842 250.595 44.0666 250.873 44.1717C251.154 44.2768 251.423 44.4203 251.679 44.6021C251.937 44.7811 252.15 45.0112 252.318 45.2924C252.485 45.5737 252.569 45.9189 252.569 46.3279C252.569 46.7995 252.446 47.2257 252.199 47.6064C251.954 47.987 251.596 48.2896 251.125 48.514C250.656 48.7385 250.086 48.8507 249.416 48.8507C248.791 48.8507 248.25 48.7498 247.792 48.5481C247.338 48.3464 246.98 48.0652 246.718 47.7044C246.46 47.3436 246.314 46.9245 246.279 46.4473H247.37C247.399 46.7768 247.51 47.0495 247.703 47.2654C247.899 47.4785 248.146 47.6376 248.444 47.7427C248.745 47.845 249.069 47.8961 249.416 47.8961C249.819 47.8961 250.181 47.8308 250.502 47.7001C250.824 47.5666 251.078 47.3819 251.265 47.1461C251.453 46.9075 251.547 46.6291 251.547 46.3109C251.547 46.0211 251.466 45.7853 251.304 45.6035C251.142 45.4217 250.929 45.274 250.664 45.1603C250.4 45.0467 250.115 44.9473 249.808 44.862L248.734 44.5552C248.052 44.3592 247.512 44.0794 247.115 43.7157C246.717 43.3521 246.518 42.8762 246.518 42.2882C246.518 41.7995 246.65 41.3734 246.914 41.0098C247.181 40.6433 247.539 40.3592 247.988 40.1575C248.44 39.9529 248.944 39.8507 249.501 39.8507C250.064 39.8507 250.564 39.9515 251.001 40.1532C251.439 40.3521 251.785 40.6248 252.041 40.9714C252.299 41.318 252.436 41.7115 252.45 42.1518H251.427ZM256.915 48.8336C256.284 48.8336 255.74 48.6944 255.283 48.416C254.828 48.1348 254.477 47.7427 254.23 47.2399C253.986 46.7342 253.864 46.1461 253.864 45.4757C253.864 44.8052 253.986 44.2143 254.23 43.7029C254.477 43.1887 254.821 42.7882 255.261 42.5012C255.705 42.2115 256.222 42.0666 256.812 42.0666C257.153 42.0666 257.49 42.1234 257.822 42.237C258.155 42.3507 258.457 42.5353 258.73 42.791C259.003 43.0439 259.22 43.3791 259.382 43.7967C259.544 44.2143 259.625 44.7285 259.625 45.3393V45.7654H254.58V44.8961H258.602C258.602 44.5268 258.528 44.1973 258.381 43.9075C258.236 43.6177 258.028 43.389 257.759 43.2214C257.491 43.0538 257.176 42.97 256.812 42.97C256.412 42.97 256.065 43.0694 255.773 43.2683C255.483 43.4643 255.26 43.72 255.104 44.0353C254.947 44.3507 254.869 44.6887 254.869 45.0495V45.6291C254.869 46.1234 254.955 46.5424 255.125 46.8862C255.298 47.2271 255.538 47.487 255.845 47.666C256.152 47.8422 256.509 47.9302 256.915 47.9302C257.179 47.9302 257.418 47.8933 257.631 47.8194C257.847 47.7427 258.033 47.6291 258.189 47.4785C258.345 47.3251 258.466 47.1348 258.551 46.9075L259.523 47.1802C259.42 47.5098 259.249 47.7995 259.007 48.0495C258.766 48.2967 258.467 48.4899 258.112 48.6291C257.757 48.7654 257.358 48.8336 256.915 48.8336ZM261.729 42.1518L263.297 44.8279L264.865 42.1518H266.025L263.911 45.4245L266.025 48.6973H264.865L263.297 46.1575L261.729 48.6973H260.57L262.65 45.4245L260.57 42.1518H261.729Z" fill="#26213B"/>
<path d="M295.197 41.0073C295.146 40.5755 294.938 40.2402 294.575 40.0016C294.211 39.763 293.765 39.6436 293.237 39.6436C292.85 39.6436 292.512 39.7061 292.222 39.8311C291.935 39.9561 291.711 40.128 291.549 40.3468C291.39 40.5655 291.31 40.8141 291.31 41.0925C291.31 41.3255 291.366 41.5257 291.477 41.6934C291.59 41.8581 291.735 41.9959 291.911 42.1067C292.087 42.2147 292.272 42.3042 292.465 42.3752C292.658 42.4434 292.836 42.4988 292.998 42.5414L293.884 42.78C294.112 42.8397 294.364 42.9221 294.643 43.0272C294.924 43.1323 295.192 43.2757 295.448 43.4576C295.707 43.6365 295.92 43.8667 296.087 44.1479C296.255 44.4292 296.339 44.7743 296.339 45.1834C296.339 45.655 296.215 46.0811 295.968 46.4618C295.724 46.8425 295.366 47.1451 294.894 47.3695C294.425 47.5939 293.856 47.7061 293.185 47.7061C292.56 47.7061 292.019 47.6053 291.562 47.4036C291.107 47.2019 290.749 46.9206 290.488 46.5598C290.229 46.199 290.083 45.78 290.049 45.3027H291.14C291.168 45.6323 291.279 45.905 291.472 46.1209C291.668 46.334 291.915 46.4931 292.214 46.5982C292.515 46.7005 292.839 46.7516 293.185 46.7516C293.589 46.7516 293.951 46.6863 294.272 46.5556C294.593 46.4221 294.847 46.2374 295.035 46.0016C295.222 45.763 295.316 45.4846 295.316 45.1664C295.316 44.8766 295.235 44.6408 295.073 44.459C294.911 44.2772 294.698 44.1294 294.434 44.0158C294.17 43.9022 293.884 43.8027 293.577 43.7175L292.504 43.4107C291.822 43.2147 291.282 42.9348 290.884 42.5712C290.487 42.2076 290.288 41.7317 290.288 41.1436C290.288 40.655 290.42 40.2289 290.684 39.8652C290.951 39.4988 291.309 39.2147 291.758 39.013C292.21 38.8084 292.714 38.7061 293.271 38.7061C293.833 38.7061 294.333 38.807 294.771 39.0087C295.208 39.2076 295.555 39.4803 295.81 39.8269C296.069 40.1735 296.205 40.5669 296.219 41.0073H295.197ZM299.866 47.7061C299.451 47.7061 299.075 47.628 298.737 47.4718C298.399 47.3127 298.13 47.084 297.931 46.7857C297.733 46.4846 297.633 46.1209 297.633 45.6948C297.633 45.3198 297.707 45.0158 297.855 44.7828C298.002 44.5471 298.2 44.3624 298.447 44.2289C298.694 44.0953 298.967 43.9959 299.265 43.9306C299.566 43.8624 299.869 43.8084 300.173 43.7686C300.571 43.7175 300.893 43.6792 301.14 43.6536C301.39 43.6252 301.572 43.5783 301.686 43.513C301.802 43.4476 301.86 43.334 301.86 43.1721V43.138C301.86 42.7175 301.745 42.3908 301.515 42.1578C301.288 41.9249 300.943 41.8084 300.48 41.8084C300 41.8084 299.623 41.9135 299.35 42.1238C299.078 42.334 298.886 42.5584 298.775 42.7971L297.821 42.4561C297.991 42.0584 298.218 41.7488 298.502 41.5272C298.789 41.3027 299.102 41.1465 299.44 41.0584C299.781 40.9675 300.116 40.9221 300.446 40.9221C300.656 40.9221 300.897 40.9476 301.17 40.9988C301.446 41.0471 301.711 41.1479 301.967 41.3013C302.225 41.4547 302.44 41.6863 302.61 41.9959C302.781 42.3056 302.866 42.7203 302.866 43.2402V47.5527H301.86V46.6664H301.809C301.741 46.8084 301.627 46.9604 301.468 47.1223C301.309 47.2843 301.098 47.4221 300.833 47.5357C300.569 47.6493 300.247 47.7061 299.866 47.7061ZM300.02 46.8027C300.417 46.8027 300.752 46.7246 301.025 46.5684C301.301 46.4121 301.508 46.2104 301.647 45.9632C301.789 45.7161 301.86 45.4561 301.86 45.1834V44.263C301.818 44.3141 301.724 44.361 301.579 44.4036C301.437 44.4434 301.272 44.4789 301.085 44.5101C300.9 44.5385 300.72 44.5641 300.544 44.5868C300.37 44.6067 300.23 44.6238 300.122 44.638C299.86 44.6721 299.616 44.7275 299.389 44.8042C299.164 44.878 298.983 44.9902 298.843 45.1408C298.707 45.2885 298.639 45.4902 298.639 45.7459C298.639 46.0953 298.768 46.3596 299.027 46.5385C299.288 46.7147 299.619 46.8027 300.02 46.8027ZM304.838 47.5527V38.8255H305.844V42.0471H305.929C306.003 41.9334 306.105 41.7885 306.236 41.6124C306.369 41.4334 306.56 41.2743 306.807 41.1351C307.057 40.9931 307.395 40.9221 307.821 40.9221C308.372 40.9221 308.858 41.0598 309.278 41.3354C309.699 41.611 310.027 42.0016 310.263 42.5073C310.499 43.013 310.616 43.6096 310.616 44.2971C310.616 44.9902 310.499 45.5911 310.263 46.0996C310.027 46.6053 309.7 46.9973 309.283 47.2757C308.865 47.5513 308.384 47.6891 307.838 47.6891C307.418 47.6891 307.081 47.6195 306.828 47.4803C306.575 47.3382 306.381 47.1777 306.244 46.9988C306.108 46.8169 306.003 46.6664 305.929 46.5471H305.81V47.5527H304.838ZM305.827 44.28C305.827 44.7743 305.899 45.2104 306.044 45.5882C306.189 45.9632 306.401 46.2573 306.679 46.4703C306.957 46.6806 307.298 46.7857 307.702 46.7857C308.122 46.7857 308.473 46.6749 308.754 46.4533C309.038 46.2289 309.251 45.9277 309.393 45.5499C309.538 45.1692 309.611 44.7459 309.611 44.28C309.611 43.8198 309.54 43.405 309.398 43.0357C309.259 42.6635 309.047 42.3695 308.763 42.1536C308.482 41.9348 308.128 41.8255 307.702 41.8255C307.293 41.8255 306.949 41.9292 306.67 42.1365C306.392 42.3411 306.182 42.628 306.04 42.9973C305.898 43.3638 305.827 43.7914 305.827 44.28Z" fill="#26213B"/>
</svg>
